<?xml version="1.0" standalone="no"?>
<!DOCTYPE svg PUBLIC "-//W3C//DTD SVG 20010904//EN"
 "http://www.w3.org/TR/2001/REC-SVG-20010904/DTD/svg10.dtd">
<svg version="1.0" xmlns="http://www.w3.org/2000/svg"
 width="700.000000pt" height="700.000000pt" viewBox="0 0 700.000000 700.000000"
 preserveAspectRatio="xMidYMid meet">
<metadata>
Created by potrace 1.14, written by Peter Selinger 2001-2017
</metadata>
<g transform="translate(0.000000,700.000000) scale(0.100000,-0.100000)"
fill="#000000" stroke="none">
<path d="M3412 6977 c-48 -25 -71 -46 -88 -79 -12 -24 -81 -206 -88 -233 -2
-5 -5 -17 -8 -25 -3 -8 -16 -44 -28 -80 -12 -36 -26 -74 -30 -85 -5 -11 -41
-112 -80 -225 -123 -352 -151 -433 -171 -485 -22 -59 -239 -676 -239 -681 0
-1 -26 -17 -57 -35 -60 -34 -224 -138 -233 -148 -3 -4 -23 -18 -45 -33 -43
-28 -44 -29 -173 -132 -381 -303 -739 -707 -969 -1091 -174 -292 -309 -633
-339 -860 -3 -27 -8 -53 -10 -56 -7 -13 -18 -171 -18 -274 0 -156 12 -272 43
-415 l18 -83 -90 -121 c-326 -438 -589 -942 -762 -1463 -52 -158 -55 -200 -15
-272 42 -73 148 -117 228 -93 21 6 84 42 142 80 221 144 502 296 712 385 254
108 553 206 768 252 l65 14 110 -46 c164 -69 165 -69 235 -91 222 -69 441
-118 645 -142 50 -6 108 -13 130 -16 188 -23 743 -22 886 1 13 2 49 6 79 9 30
4 66 8 80 11 14 2 41 6 60 9 19 3 44 7 55 10 11 2 40 7 65 11 25 4 81 16 125
26 44 11 88 22 97 24 114 26 295 88 450 154 l97 41 104 -25 c144 -34 356 -98
452 -135 267 -103 274 -106 450 -190 158 -75 348 -182 518 -292 149 -95 190
-109 261 -90 85 24 143 91 152 177 5 42 -26 160 -80 302 -8 21 -28 74 -44 118
-152 404 -425 896 -697 1255 l-73 96 18 84 c25 115 29 141 37 245 12 156 7
363 -12 455 -3 14 -8 43 -11 65 -12 77 -73 284 -120 401 -167 426 -447 830
-851 1231 -241 239 -521 458 -785 613 -45 27 -60 42 -72 74 -8 23 -58 165
-111 316 -53 151 -123 350 -156 443 -106 299 -180 510 -216 612 -39 114 -84
240 -119 335 -32 88 -72 134 -132 154 -60 20 -114 18 -160 -7z m358 -1565 l39
-112 -27 6 c-15 3 -34 8 -42 11 -73 24 -246 33 -365 19 -73 -9 -101 -14 -167
-32 -18 -5 -14 5 138 436 12 36 47 135 77 220 30 85 60 169 67 185 11 28 17
13 126 -295 63 -179 132 -376 154 -438z m-108 -497 c234 -52 530 -209 838
-443 69 -53 127 -98 130 -101 3 -3 39 -35 80 -71 97 -84 290 -277 360 -360 30
-36 57 -67 60 -70 3 -3 35 -41 70 -85 168 -206 371 -557 451 -775 27 -77 77
-255 84 -305 15 -106 18 -144 18 -235 0 -102 -8 -219 -18 -270 -3 -14 -8 -38
-11 -55 -28 -161 -121 -382 -212 -510 -153 -213 -346 -376 -596 -504 -217
-111 -434 -180 -766 -246 -8 -1 -40 -6 -70 -10 -30 -4 -69 -9 -86 -11 -216
-32 -752 -37 -916 -9 -13 2 -45 6 -73 10 -47 5 -69 8 -140 20 -16 3 -46 8 -65
11 -75 12 -220 47 -330 81 -667 203 -1089 618 -1194 1170 -63 336 -33 602 109
953 62 152 263 496 367 624 153 191 219 266 341 388 454 456 984 779 1347 821
48 5 155 -3 222 -18z m-2531 -3482 c84 -125 151 -205 259 -310 36 -35 68 -63
72 -63 18 0 6 -19 -14 -25 -181 -54 -522 -190 -723 -289 -61 -29 -112 -52
-113 -50 -6 5 162 334 231 452 60 101 228 362 234 362 1 0 26 -35 54 -77z
m4868 -30 c6 -7 11 -15 11 -19 0 -3 10 -20 23 -37 12 -17 27 -39 32 -49 6 -9
46 -77 90 -150 77 -129 240 -446 233 -453 -2 -2 -48 19 -103 46 -205 102 -526
229 -744 295 -9 3 19 37 79 96 103 102 171 185 249 301 l53 78 33 -48 c19 -26
39 -53 44 -60z"/>
<path d="M2205 3693 c-86 -29 -138 -104 -137 -199 1 -183 225 -266 350 -130
76 83 74 197 -5 278 -56 57 -134 76 -208 51z"/>
<path d="M3437 3693 c-40 -12 -76 -44 -286 -252 -215 -215 -241 -245 -254
-289 -51 -170 112 -317 275 -249 18 8 100 80 181 160 l148 146 141 -140 c77
-77 151 -147 163 -155 38 -25 113 -33 165 -18 86 25 158 131 144 211 -14 80
-28 97 -260 329 -128 128 -246 240 -262 248 -41 21 -101 25 -155 9z"/>
<path d="M4663 3693 c-80 -27 -134 -104 -135 -192 0 -91 57 -170 141 -195 81
-24 155 -3 215 60 78 82 61 234 -33 298 -62 41 -123 51 -188 29z"/>
<path d="M2616 2463 c-40 -12 -76 -44 -282 -249 -149 -149 -241 -249 -251
-272 -36 -86 -6 -197 65 -245 44 -30 102 -47 140 -41 73 13 97 30 242 174
l149 148 150 -148 c152 -149 180 -168 254 -174 72 -6 110 19 267 174 l151 149
150 -149 c129 -129 157 -151 199 -164 27 -8 62 -13 77 -10 75 13 98 29 244
175 l149 148 150 -149 c151 -149 178 -168 253 -174 80 -7 172 56 200 137 16
48 12 118 -9 159 -8 16 -120 134 -249 263 -250 250 -263 259 -358 258 -62 -1
-99 -27 -251 -178 l-146 -145 -147 146 c-84 84 -161 153 -182 161 -52 22 -122
20 -170 -5 -23 -12 -104 -85 -181 -162 l-141 -140 -146 146 c-178 178 -218
198 -327 167z"/>
</g>
</svg>
