<svg height="512pt" viewBox="-76 0 512 512" width="512pt" xmlns="http://www.w3.org/2000/svg" xmlns:xlink="http://www.w3.org/1999/xlink"><linearGradient id="a" gradientUnits="userSpaceOnUse" x1="0" x2="360" y1="256" y2="256"><stop offset="0" stop-color="#80d8ff"/><stop offset="1" stop-color="#ea80fc"/></linearGradient><path d="m340 160h-224v-56c0-35.289062 28.710938-64 64-64s64 28.710938 64 64c0 11.046875 8.953125 20 20 20s20-8.953125 20-20c0-57.347656-46.652344-104-104-104s-104 46.652344-104 104v56h-56c-11.046875 0-20 8.953125-20 20v236c0 5.4375 2.214844 10.640625 6.132812 14.410156l78.988282 76c3.726562 3.585938 8.695312 5.589844 13.867187 5.589844h162.023438c5.171875 0 10.140625-2.003906 13.867187-5.589844l78.988282-76c3.917968-3.769531 6.132812-8.972656 6.132812-14.410156v-236c0-11.046875-8.953125-20-20-20zm-20 247.488281-67.046875 64.511719h-145.90625l-67.046875-64.511719v-207.488281h280zm-160-38.042969v25.554688c0 11.046875 8.953125 20 20 20s20-8.953125 20-20v-25.554688c22.15625-8.167968 38-29.488281 38-54.445312 0-31.980469-26.019531-58-58-58s-58 26.019531-58 58c0 24.957031 15.84375 46.277344 38 54.445312zm20-72.445312c9.925781 0 18 8.074219 18 18s-8.074219 18-18 18-18-8.074219-18-18 8.074219-18 18-18zm0 0" fill="url(#a)"/></svg>