<svg id="Capa_1" enable-background="new 0 0 512 512" height="512" viewBox="0 0 512 512" width="512" xmlns="http://www.w3.org/2000/svg" xmlns:xlink="http://www.w3.org/1999/xlink"><linearGradient id="SVGID_1_" gradientUnits="userSpaceOnUse" x1="256" x2="256" y1="512" y2="0"><stop offset="0" stop-color="#00b59c"/><stop offset="1" stop-color="#9cffac"/></linearGradient><g><g><g><path d="m196 150c-8.284 0-15 6.716-15 15s6.716 15 15 15 15-6.716 15-15-6.716-15-15-15zm240-150h-30c-22.845 0-44.255 10.552-58.322 27.881-26.238-17.6-57.779-27.881-91.678-27.881s-65.44 10.281-91.678 27.881c-14.067-17.329-35.477-27.881-58.322-27.881h-30c-24.813 0-45 20.187-45 45s20.187 45 45 45h33.052c-11.538 22.514-18.052 48.011-18.052 75 0 62.386 29.897 95.812 58.81 128.137 29.24 32.692 56.969 63.706 60.749 126.863h-14.559c-8.284 0-15 6.716-15 15s6.716 15 15 15h45v17c0 24.813 20.187 45 45 45h90c24.813 0 45-20.187 45-45s-20.187-45-45-45c-8.284 0-15 6.716-15 15s6.716 15 15 15c8.271 0 15 6.729 15 15s-6.729 15-15 15h-90c-8.271 0-15-6.729-15-15v-17h45c8.284 0 15-6.716 15-15s-6.716-15-15-15h-14.558c3.779-63.157 31.508-94.171 60.749-126.863 28.912-32.325 58.809-65.751 58.809-128.137 0-26.989-6.514-52.486-18.052-75h33.052c24.813 0 45-20.187 45-45s-20.187-45-45-45zm-360 60c-8.271 0-15-6.729-15-15s6.729-15 15-15h30c13.725 0 26.588 6.349 35.031 16.772-4.304 4.187-8.387 8.598-12.217 13.228zm263.83 213.137c-30.302 33.878-64.398 72.005-68.432 146.863h-30.797c-4.033-74.858-38.13-112.985-68.432-146.863-27.456-30.699-51.169-57.21-51.169-108.137 0-74.439 60.561-135 135-135s135 60.561 135 135c0 50.927-23.713 77.438-51.17 108.137zm96.17-213.137h-52.814c-3.829-4.63-7.913-9.042-12.217-13.228 8.443-10.423 21.306-16.772 35.031-16.772h30c8.271 0 15 6.729 15 15s-6.729 15-15 15zm-150 210h-60c-8.284 0-15 6.716-15 15s6.716 15 15 15h60c8.284 0 15-6.716 15-15s-6.716-15-15-15zm30-120c-8.284 0-15 6.716-15 15s6.716 15 15 15 15-6.716 15-15-6.716-15-15-15zm-30 60h-60c-8.284 0-15 6.716-15 15s6.716 15 15 15h60c8.284 0 15-6.716 15-15s-6.716-15-15-15z" fill="url(#SVGID_1_)"/></g></g></g></svg>