<svg id="Capa_1" enable-background="new 0 0 512 512" height="512" viewBox="0 0 512 512" width="512" xmlns="http://www.w3.org/2000/svg" xmlns:xlink="http://www.w3.org/1999/xlink"><linearGradient id="SVGID_1_" gradientUnits="userSpaceOnUse" x1="256" x2="256" y1="496" y2="16"><stop offset="0" stop-color="#00b59c"/><stop offset="1" stop-color="#9cffac"/></linearGradient><g><g><g><path d="m236.606 311.606 19.394-19.393 19.394 19.393c5.857 5.857 15.355 5.858 21.213 0s5.858-15.355 0-21.213l-30-30c-5.857-5.858-15.355-5.858-21.213 0l-30 30c-5.858 5.858-5.858 15.355 0 21.213 5.857 5.859 15.355 5.859 21.212 0zm79.394 34.394h-120c-8.284 0-15 6.716-15 15s6.716 15 15 15h15v15c0 8.284 6.716 15 15 15s15-6.716 15-15v-15h30v15c0 8.284 6.716 15 15 15s15-6.716 15-15v-15h15c8.284 0 15-6.716 15-15s-6.716-15-15-15zm-150-90c-8.284 0-15 6.716-15 15s6.716 15 15 15 15-6.716 15-15-6.716-15-15-15zm337.62-58.46-33.631-16.54 33.631-16.54c5.13-2.523 8.38-7.743 8.38-13.46 0-74.439-61.01-135-136-135-8.284 0-15 6.716-15 15v117.481c-18.798-8.213-39.152-12.481-60-12.481h-90c-20.848 0-41.202 4.268-60 12.481v-117.481c0-8.284-6.716-15-15-15-74.99 0-136 60.561-136 135 0 5.717 3.25 10.937 8.38 13.46l33.631 16.54-33.631 16.54c-5.13 2.523-8.38 7.743-8.38 13.46 0 20.038 8.022 38.915 22.589 53.153 10.743 10.501 24.019 17.486 38.419 20.362-.494 50.106 24.038 96.86 64.952 125.065l121.527 83.77c2.563 1.767 5.537 2.65 8.513 2.65s5.95-.883 8.513-2.65l121.528-83.77c41.767-28.792 65.491-76.07 64.95-125.175 14.357-2.934 27.584-9.857 38.268-20.204 14.665-14.202 22.741-33.096 22.741-53.201 0-5.717-3.25-10.937-8.38-13.46zm-35.232 45.11c-8.886 8.605-20.676 13.344-33.201 13.344-.003 0-.01 0-.011 0-8.926 0-15.892 7.763-14.909 16.649.486 4.4.733 8.894.733 13.357 0 39.476-19.434 76.441-51.985 98.88l-113.015 77.902-113.014-77.902c-32.551-22.44-51.986-59.404-51.986-98.88 0-4.456.247-8.95.733-13.359 1.003-9.085-6.278-16.778-15.007-16.646l-.726.005c-21.839 0-40.71-15.81-45.06-36.124l51.68-25.416c5.13-2.523 8.38-7.743 8.38-13.46s-3.25-10.937-8.38-13.46l-52.222-25.683c4.262-48.697 42.226-87.992 90.602-94.809v126.686c0 5.537 3.051 10.624 7.935 13.232 4.886 2.608 10.808 2.314 15.409-.767 19.74-13.215 42.789-20.199 66.656-20.199h90c23.867 0 46.916 6.984 66.656 20.198 4.601 3.08 10.523 3.374 15.409.767 4.884-2.608 7.935-7.695 7.935-13.232v-126.685c48.376 6.817 86.34 46.112 90.602 94.809l-52.222 25.683c-5.13 2.523-8.38 7.743-8.38 13.46s3.25 10.937 8.38 13.46l51.704 25.428c-1.786 8.541-6.142 16.415-12.696 22.762zm-122.388 13.35c-8.284 0-15 6.716-15 15s6.716 15 15 15 15-6.716 15-15-6.716-15-15-15z" fill="url(#SVGID_1_)"/></g></g></g></svg>