<svg id="Capa_1" enable-background="new 0 0 512 512" height="512" viewBox="0 0 512 512" width="512" xmlns="http://www.w3.org/2000/svg" xmlns:xlink="http://www.w3.org/1999/xlink"><linearGradient id="SVGID_1_" gradientUnits="userSpaceOnUse" x1="256" x2="256" y1="512" y2="0"><stop offset="0" stop-color="#a93aff"/><stop offset="1" stop-color="#ff81ff"/></linearGradient><g><g><g><path d="m301 241h-90c-49.626 0-90 40.374-90 90s40.374 90 90 90h90c49.626 0 90-40.374 90-90s-40.374-90-90-90zm0 150h-30v-38.787l25.606-25.606c5.858-5.858 5.858-15.355 0-21.213-5.857-5.858-15.355-5.858-21.213 0l-19.393 19.393-19.394-19.393c-5.857-5.858-15.355-5.858-21.213 0s-5.858 15.355 0 21.213l25.607 25.606v38.787h-30c-33.084 0-60-26.916-60-60s26.916-60 60-60h90c33.084 0 60 26.916 60 60s-26.916 60-60 60zm-105-180c8.284 0 15-6.716 15-15s-6.716-15-15-15-15 6.716-15 15 6.716 15 15 15zm120 0c8.284 0 15-6.716 15-15s-6.716-15-15-15-15 6.716-15 15 6.716 15 15 15zm196-136c0-41.355-33.645-75-75-75-25.46 0-49.445 13.516-63.402 34.415-35.877-22.567-76.197-34.415-117.598-34.415-41.391 0-81.703 11.85-117.589 34.425-13.959-20.906-37.948-34.425-63.411-34.425-41.355 0-75 33.645-75 75 0 29.141 17.601 55.823 43.146 68.387-28.275 56.806-43.146 126.417-43.146 202.613 0 91.178 74.839 166 166 166h180c91.18 0 166-74.838 166-166 0-76.18-14.876-145.79-43.157-202.606 25.553-12.564 43.157-39.248 43.157-68.394zm-30 271c0 74.991-61.01 136-136 136h-180c-74.99 0-136-61.009-136-136 0-78.27 16.486-148.701 47.677-203.678 5.061-8.921-.144-20.203-10.224-22.134-21.351-4.091-37.453-23.518-37.453-45.188 0-24.813 20.187-45 45-45 18.981 0 37.301 13.175 43.559 31.327 3.29 9.548 14.926 13.195 23.082 7.185 34.173-25.195 73.718-38.512 114.359-38.512 40.656 0 80.204 13.313 114.368 38.501 8.128 5.994 19.781 2.394 23.083-7.185 6.254-18.146 24.57-31.316 43.549-31.316 24.813 0 45 20.187 45 45 0 21.672-16.106 41.102-37.464 45.194-10.074 1.93-15.289 13.206-10.225 22.134 31.199 54.992 47.689 125.42 47.689 203.672z" fill="url(#SVGID_1_)"/></g></g></g></svg>