<svg id="Capa_1" enable-background="new 0 0 512 512" height="512" viewBox="0 0 512 512" width="512" xmlns="http://www.w3.org/2000/svg" xmlns:xlink="http://www.w3.org/1999/xlink"><linearGradient id="SVGID_1_" gradientUnits="userSpaceOnUse" x1="256" x2="256" y1="481" y2="31"><stop offset="0" stop-color="#59351f"/><stop offset="1" stop-color="#AF8C68"/></linearGradient><g><g><g><path d="m226 316c-8.284 0-15 6.716-15 15s6.716 15 15 15 15-6.716 15-15-6.716-15-15-15zm-30-105c8.284 0 15-6.716 15-15s-6.716-15-15-15-15 6.716-15 15 6.716 15 15 15zm120 0c8.284 0 15-6.716 15-15s-6.716-15-15-15-15 6.716-15 15 6.716 15 15 15zm-30 105c-8.284 0-15 6.716-15 15s6.716 15 15 15 15-6.716 15-15-6.716-15-15-15zm90-45c-8.284 0-15 6.716-15 15 0 8.271-6.729 15-15 15h-4.473l-28.228-33.395c-14.292-16.908-35.177-26.605-57.299-26.605s-43.007 9.697-57.299 26.605l-28.228 33.395h-4.473c-8.271 0-15-6.729-15-15 0-8.284-6.716-15-15-15s-15 6.716-15 15c0 20.446 13.711 37.739 32.418 43.197-1.582 5.423-2.418 11.077-2.418 16.803 0 33.084 26.916 60 60 60h90c33.084 0 60-26.916 60-60 0-5.726-.835-11.38-2.418-16.803 18.707-5.458 32.418-22.751 32.418-43.197 0-8.284-6.716-15-15-15zm-75 105h-90c-25.579 0-39.247-30.044-22.927-49.35h.001l33.539-39.678c8.579-10.151 21.114-15.972 34.387-15.972s25.808 5.821 34.388 15.972l33.54 39.678c16.317 19.304 2.655 49.35-22.928 49.35zm196-345h-30c-46.642 0-91.534 19.801-122.644 53.549-26.851-15.444-57.133-23.549-88.356-23.549-31.222 0-61.504 8.105-88.355 23.549-31.11-33.748-76.003-53.549-122.645-53.549h-30c-8.284 0-15 6.716-15 15v90c0 24.785 12.443 47.962 33.285 61.998 13.682 9.214 29.428 13.594 45.492 12.972l-12.42 40.363c-16.737 54.396-6.944 111.851 26.868 157.631s85.846 72.036 142.759 72.036h40.031c56.913 0 108.946-26.256 142.759-72.036s43.605-103.235 26.868-157.631l-12.42-40.363c16.063.625 31.812-3.758 45.492-12.972 20.843-14.036 33.286-37.213 33.286-61.998v-90c0-8.284-6.716-15-15-15zm-15 105c0 14.788-7.493 28.663-20.043 37.114-12.403 8.354-27.768 10.115-42.537 4.973-2.195-1.416-4.77-2.267-7.503-2.381-6.334-.266-12.175 3.497-14.545 9.393-.024.146-2.932 6.023.392 12.64l19.205 62.415c13.908 45.202 5.771 92.944-22.326 130.986s-71.334 59.86-118.627 59.86h-40.031c-47.292 0-90.53-21.818-118.627-59.86s-36.234-85.784-22.326-130.985l19.203-62.41c3.352-6.669.404-12.526.378-12.683-2.383-5.882-8.185-9.645-14.55-9.354-2.727.118-5.294.968-7.483 2.381-14.772 5.14-30.133 3.379-42.536-4.974-12.551-8.452-20.044-22.327-20.044-37.115v-75h15c42.047 0 82.325 19.567 107.745 52.341 4.855 6.26 13.743 7.667 20.292 3.208 24.558-16.715 53.246-25.549 82.963-25.549 29.718 0 58.406 8.834 82.964 25.548 6.552 4.458 15.438 3.053 20.292-3.208 25.42-32.773 65.698-52.34 107.744-52.34h15z" fill="url(#SVGID_1_)"/></g></g></g></svg>