<svg id="Capa_1" enable-background="new 0 0 512 512" height="512" viewBox="0 0 512 512" width="512" xmlns="http://www.w3.org/2000/svg" xmlns:xlink="http://www.w3.org/1999/xlink"><linearGradient id="SVGID_1_" gradientUnits="userSpaceOnUse" x1="256" x2="256" y1="496" y2="16"><stop offset="0" stop-color="#59351f"/><stop offset="1" stop-color="#AF8C68"/></linearGradient><g><g><g><path d="m195 256c-8.284 0-15 6.716-15 15s6.716 15 15 15 15-6.716 15-15-6.716-15-15-15zm92 150c-8.284 0-15 6.716-15 15s6.716 15 15 15 15-6.716 15-15-6.716-15-15-15zm150-180h-45v-15c0-5.096-.523-10.103-1.517-15h16.517c57.897 0 105-47.103 105-105 0-41.355-33.645-75-75-75-8.284 0-15 6.716-15 15v30c0 8.271-6.729 15-15 15h-106c-17.908 0-33.997 7.896-45 20.377-11.003-12.481-27.092-20.377-45-20.377h-106c-8.271 0-15-6.729-15-15v-30c0-8.284-6.716-15-15-15-41.355 0-75 33.645-75 75 0 57.897 47.103 105 105 105h16.517c-.994 4.897-1.517 9.904-1.517 15v15h-45c-41.355 0-75 33.645-75 75 0 8.284 6.716 15 15 15h60c17.96 0 34.461-6.352 47.388-16.919 2.417 13.197 6.374 23.672 10.473 34.518 8.034 21.254 17.139 45.344 17.139 102.401 0 33.084 26.916 60 60 60h92c33.084 0 60-26.916 60-60 0-57.057 9.105-81.147 17.139-102.401 4.099-10.845 8.056-21.321 10.473-34.518 12.927 10.567 29.428 16.919 47.388 16.919h60c8.284 0 15-6.716 15-15 0-41.355-33.645-75-75-75zm-362 60h-42.43c6.191-17.461 22.874-30 42.43-30h42.43c-6.191 17.461-22.874 30-42.43 30zm30-120c-41.355 0-75-33.645-75-75 0-19.556 12.539-36.239 30-42.43v12.43c0 24.813 20.187 45 45 45h106c16.542 0 30 13.458 30 30s-13.458 30-30 30zm257 105c0 23.09-4.821 35.844-10.924 51.992-7.872 20.826-17.525 46.372-18.908 99.711-.287 1.901-.118 2.317-.168 13.297 0 16.542-13.458 30-30 30h-92c-16.542 0-30-13.458-30-30-.05-11.031.119-11.394-.168-13.297-1.383-53.339-11.037-78.885-18.908-99.711-6.103-16.148-10.924-28.902-10.924-51.992v-60c0-5.183.871-10.209 2.568-15h58.432c17.908 0 33.997-7.896 45-20.377 11.003 12.481 27.092 20.377 45 20.377h58.432c1.697 4.791 2.568 9.817 2.568 15zm-61-105c-16.542 0-30-13.458-30-30s13.458-30 30-30h106c24.813 0 45-20.187 45-45v-12.43c17.461 6.191 30 22.874 30 42.43 0 41.355-33.645 75-75 75zm136 120c-19.556 0-36.239-12.539-42.43-30h42.43c19.556 0 36.239 12.539 42.43 30zm-120-30c-8.284 0-15 6.716-15 15s6.716 15 15 15 15-6.716 15-15-6.716-15-15-15zm-92 150c-8.284 0-15 6.716-15 15s6.716 15 15 15 15-6.716 15-15-6.716-15-15-15z" fill="url(#SVGID_1_)"/></g></g></g></svg>