<svg id="Capa_1" enable-background="new 0 0 512 512" height="512" viewBox="0 0 512 512" width="512" xmlns="http://www.w3.org/2000/svg" xmlns:xlink="http://www.w3.org/1999/xlink"><linearGradient id="SVGID_1_" gradientUnits="userSpaceOnUse" x1="256" x2="256" y1="512" y2="0"><stop offset="0" stop-color="#59351f"/><stop offset="1" stop-color="#AF8C68"/></linearGradient><g><g><g><path d="m420.937 135.009c18.24-13.694 30.063-35.496 30.063-60.009 0-41.355-33.645-75-75-75-8.284 0-15 6.716-15 15v60.053c-12.545-9.441-28.126-15.053-45-15.053h-120c-16.873 0-32.455 5.612-45 15.053v-60.053c0-8.284-6.716-15-15-15-41.355 0-75 33.645-75 75 0 24.513 11.823 46.315 30.064 60.009-18.236 13.695-30.064 35.483-30.064 59.991 0 23.455 11.306 45.604 30 59.689v30.311c0 40.787 23.719 77.651 60 94.874v72.126c0 33.084 26.916 60 60 60 17.901 0 33.997-7.881 45-20.354 11.003 12.473 27.099 20.354 45 20.354 33.084 0 60-26.916 60-60v-72.126c36.281-17.222 60-54.086 60-94.874v-30.311c18.694-14.085 30-36.235 30-59.689 0-24.508-11.828-46.296-30.063-59.991zm-29.937-102.439c17.461 6.191 30 22.874 30 42.43s-12.539 36.239-30 42.43zm-300 42.43c0-19.556 12.539-36.239 30-42.43v84.859c-17.461-6.19-30-22.873-30-42.429zm240 377c0 16.542-13.458 30-30 30s-30-13.458-30-30v-40.787l25.606-25.606c5.858-5.858 5.858-15.355 0-21.213-5.857-5.858-15.355-5.858-21.213 0l-19.393 19.393-19.394-19.393c-5.857-5.858-15.355-5.858-21.213 0s-5.858 15.355 0 21.213l25.607 25.606v40.787c0 16.542-13.458 30-30 30s-30-13.458-30-30v-107c0-41.355 33.645-75 75-75s75 33.645 75 75zm67.455-218.287c-4.615 2.686-7.455 7.624-7.455 12.964v38.323c0 23.989-11.483 46.079-30 60.003 0-57.897-47.103-105.003-105-105.003s-105 47.103-105 105c-18.517-13.925-30-36.012-30-60v-38.322c0-5.34-2.839-10.278-7.455-12.964-14.117-8.216-22.545-22.689-22.545-38.714 0-24.813 20.187-45 45-45 8.284 0 15-6.716 15-15 0-24.813 20.187-45 45-45h120c24.813 0 45 20.187 45 45 0 8.284 6.716 15 15 15 24.813 0 45 20.187 45 45 0 16.025-8.428 30.498-22.545 38.713zm-232.455-53.713c-8.284 0-15 6.716-15 15s6.716 15 15 15 15-6.716 15-15-6.716-15-15-15zm180 0c-8.284 0-15 6.716-15 15s6.716 15 15 15 15-6.716 15-15-6.716-15-15-15z" fill="url(#SVGID_1_)"/></g></g></g></svg>