<svg id="Capa_1" enable-background="new 0 0 511.986 511.986" height="512" viewBox="0 0 511.986 511.986" width="512" xmlns="http://www.w3.org/2000/svg" xmlns:xlink="http://www.w3.org/1999/xlink"><linearGradient id="SVGID_1_" gradientUnits="userSpaceOnUse" x1="255.993" x2="255.993" y1="511.986" y2="0"><stop offset="0" stop-color="#00b59c"/><stop offset="1" stop-color="#9cffac"/></linearGradient><g><g><g><path d="m135.993 241.986c8.284 0 15-6.716 15-15s-6.716-15-15-15-15 6.716-15 15 6.716 15 15 15zm150 60c-8.284 0-15 6.716-15 15s6.716 15 15 15 15-6.716 15-15-6.716-15-15-15zm118.779-144.261-77.806-32.417-57.513-116.942c-2.45-4.977-7.544-8.36-13.451-8.366-5.89.006-11.009 3.357-13.47 8.366l-57.512 116.942-77.806 32.417c-28.078 11.699-46.221 38.885-46.221 69.261v210c0 4.285 1.853 8.246 4.743 10.945 2.791 2.615 69.733 64.055 190.257 64.055s187.467-61.44 190.257-64.055c2.873-2.684 4.743-6.653 4.743-10.945v-210c0-30.376-18.143-57.563-46.221-69.261zm-268.779 24.261c24.813 0 45 20.187 45 45s-20.187 45-45 45-45-20.187-45-45c0-24.946 20.223-45 45-45zm120 300c-61.007 0-115.87-18.035-155.42-45.011 23.892-16.289 77.107-44.989 155.42-44.989 60.903 0 115.798 17.982 155.419 45.011-23.892 16.289-77.106 44.989-155.419 44.989zm165-74.652c-29.971-18.927-85.964-45.348-165-45.348s-135.029 26.421-165 45.348v-120.389c12.544 9.438 28.129 15.041 45 15.041 41.355 0 75-33.645 75-75 0-27.478-14.863-51.538-36.962-64.6l27.731-11.554c3.282-1.361 6.076-3.941 7.691-7.227l46.54-94.63 46.54 94.63c1.643 3.342 4.443 5.875 7.691 7.227l27.731 11.554c-22.099 13.063-36.962 37.123-36.962 64.6 0 41.355 33.645 75 75 75 16.871 0 32.456-5.603 45-15.041zm-45-135.348c-24.813 0-45-20.187-45-45s20.187-45 45-45c24.74 0 45 20.021 45 45 0 24.813-20.187 45-45 45zm-150 30c-8.284 0-15 6.716-15 15s6.716 15 15 15 15-6.716 15-15-6.716-15-15-15zm150-90c-8.284 0-15 6.716-15 15s6.716 15 15 15 15-6.716 15-15-6.716-15-15-15z" fill="url(#SVGID_1_)"/></g></g></g></svg>