<svg id="Capa_1" enable-background="new 0 0 512 512" height="512" viewBox="0 0 512 512" width="512" xmlns="http://www.w3.org/2000/svg" xmlns:xlink="http://www.w3.org/1999/xlink"><linearGradient id="SVGID_1_" gradientUnits="userSpaceOnUse" x1="256" x2="256" y1="496.5" y2="15.5"><stop offset="0" stop-color="#a93aff"/><stop offset="1" stop-color="#ff81ff"/></linearGradient><g><g><g><path d="m136 286.5c-8.284 0-15 6.716-15 15s6.716 15 15 15 15-6.716 15-15-6.716-15-15-15zm-30-60c-8.284 0-15 6.716-15 15s6.716 15 15 15 15-6.716 15-15-6.716-15-15-15zm90-90c8.284 0 15-6.716 15-15s-6.716-15-15-15-15 6.716-15 15 6.716 15 15 15zm120 0c8.284 0 15-6.716 15-15s-6.716-15-15-15-15 6.716-15 15 6.716 15 15 15zm-60 60c8.284 0 15-6.716 15-15s-6.716-15-15-15-15 6.716-15 15 6.716 15 15 15zm-53.292 31.583-30-15c-7.407-3.704-16.419-.702-20.124 6.708s-.702 16.42 6.708 20.125l30 15c7.419 3.709 16.424.691 20.124-6.708 3.705-7.409.702-16.42-6.708-20.125zm203.292 28.417c8.284 0 15-6.716 15-15s-6.716-15-15-15-15 6.716-15 15 6.716 15 15 15zm106-166c0-41.355-33.645-75-75-75-25.121 0-49.202 13.357-63.247 34.193-35.069-21.62-75.519-33.193-117.753-33.193s-82.684 11.573-117.753 33.192c-14.044-20.835-38.126-34.192-63.247-34.192-41.355 0-75 33.645-75 75 0 29.267 18.119 57.136 45.087 69.349.322.146.65.259.976.38-9.891 25.576-15.063 53.026-15.063 81.271 0 80.559 43.157 154.978 112.881 195.115 24.258 36.09 65.461 59.885 112.119 59.885s87.861-23.795 112.119-59.885c69.724-40.137 112.881-114.556 112.881-195.115 0-28.245-5.172-55.695-15.063-81.271.326-.121.654-.235.976-.38 26.968-12.213 45.087-40.082 45.087-69.349zm-454.538 42.021c-16.169-7.323-27.462-24.602-27.462-42.021 0-24.813 20.187-45 45-45 15.228 0 30.348 8.631 38.803 21.604-22.414 18.344-41.167 40.765-55.101 66.055-.401-.228-.812-.444-1.24-.638zm331.659 251.444c1.229-7.309 1.879-14.812 1.879-22.465 0-8.284-6.716-15-15-15s-15 6.716-15 15c0 57.897-47.103 105-105 105s-105-47.103-105-105c0-8.284-6.716-15-15-15s-15 6.716-15 15c0 7.653.65 15.156 1.879 22.465-38.942-36.437-61.879-87.814-61.879-142.465 0-107.523 87.477-195 195-195s195 87.477 195 195c0 54.651-22.937 106.028-61.879 142.465zm65.417-251.444c-.428.194-.839.411-1.24.639-13.951-25.32-32.711-47.73-55.101-66.055 8.456-12.974 23.576-21.605 38.803-21.605 24.813 0 45 20.187 45 45 0 17.419-11.293 34.698-27.462 42.021zm-115.246 80.562-30 15c-7.41 3.705-10.413 12.715-6.708 20.125 3.698 7.397 12.702 10.419 20.124 6.708l30-15c7.41-3.705 10.413-12.715 6.708-20.125-3.704-7.408-12.714-10.412-20.124-6.708zm-42.686 129.024c5.858-5.858 5.858-15.355 0-21.213-5.857-5.858-15.355-5.858-21.213 0l-19.393 19.393-19.394-19.394c-5.857-5.858-15.355-5.858-21.213 0s-5.858 15.355 0 21.213l25.607 25.607v28.345c-9.594 2.579-18.394 7.622-25.606 14.836-5.858 5.858-5.858 15.355 0 21.213 5.857 5.858 15.355 5.858 21.213 0 5.181-5.18 12.067-8.033 19.394-8.033s14.213 2.853 19.394 8.033c5.856 5.858 15.354 5.858 21.213 0 5.858-5.858 5.858-15.355 0-21.213-7.213-7.213-16.012-12.256-25.606-14.836v-28.345zm79.394-55.607c-8.284 0-15 6.716-15 15s6.716 15 15 15 15-6.716 15-15-6.716-15-15-15z" fill="url(#SVGID_1_)"/></g></g></g></svg>