<svg id="Capa_1" enable-background="new 0 0 512 512" height="512" viewBox="0 0 512 512" width="512" xmlns="http://www.w3.org/2000/svg" xmlns:xlink="http://www.w3.org/1999/xlink"><linearGradient id="SVGID_1_" gradientUnits="userSpaceOnUse" x1="256" x2="256" y1="512" y2="0"><stop offset="0" stop-color="#00b59c"/><stop offset="1" stop-color="#9cffac"/></linearGradient><g><g><g><path d="m196 210c8.284 0 15-6.716 15-15s-6.716-15-15-15-15 6.716-15 15 6.716 15 15 15zm120-30c-8.284 0-15 6.716-15 15s6.716 15 15 15 15-6.716 15-15-6.716-15-15-15zm6.708 61.583-60-30c-4.223-2.111-9.193-2.111-13.416 0-10.887 5.444-59.337 29.664-60.083 30.047-8.978 4.555-11.069 16.723-3.816 23.976l51.353 51.353c-2.587 4.056-5.645 8.998-8.722 14.301-15.259 26.306-17.024 37.562-17.024 43.74 0 24.813 20.187 45 45 45s45-20.187 45-45c0-6.178-1.765-17.434-17.025-43.74-3.076-5.303-6.134-10.244-8.721-14.301 11.191-11.193 50.751-50.745 51.423-51.431 7.176-7.277 5.07-19.406-3.969-23.945zm-66.708 148.417c-8.271 0-15-6.729-15-14.982.122-4.585 6.361-17.656 15-32.211 8.635 14.55 14.872 27.615 15 32.206-.006 8.264-6.733 14.987-15 14.987zm0-96.213-34.678-34.678 34.678-17.338 34.678 17.339zm194.598 137.76-63.284-267.533c-10.454-45.125-43.702-81.772-87.62-96.771-1.552-13.305-4.455-25.601-8.553-35.847-10.928-27.317-26.707-31.396-35.141-31.396s-24.213 4.079-35.14 31.396c-4.099 10.246-7.002 22.541-8.554 35.847-44.446 15.179-77.298 52.218-87.604 96.703l-63.3 267.601c-1.056 4.463-.012 9.163 2.833 12.759 2.846 3.596 7.18 5.694 11.765 5.694h85.333l86.157 59.353c2.562 1.765 5.536 2.647 8.51 2.647s5.948-.882 8.51-2.647l86.157-59.353h85.333c4.586 0 8.919-2.098 11.765-5.694 2.844-3.596 3.887-8.296 2.833-12.759zm-194.598-401.172c6.967 5.485 15 29.76 15 59.625 0 35.208-10.091 55.76-15 59.625-4.909-3.865-15-24.417-15-59.625 0-27.388 7.198-53.483 15-59.625zm90 389.625c-3.039 0-6.007.923-8.51 2.647l-81.49 56.138-81.49-56.138c-2.503-1.724-5.471-2.647-8.51-2.647h-71.038l58.951-249.216c7.323-31.608 28.597-57.411 57.34-70.843.894 18.195 4.22 35.196 9.607 48.663 10.927 27.317 26.706 31.396 35.14 31.396s24.213-4.079 35.141-31.396c5.386-13.467 8.713-30.468 9.607-48.663 28.744 13.434 50.021 39.246 57.355 70.911l58.935 249.148z" fill="url(#SVGID_1_)"/></g></g></g></svg>