<svg id="Capa_1" enable-background="new 0 0 512 512" height="512" viewBox="0 0 512 512" width="512" xmlns="http://www.w3.org/2000/svg" xmlns:xlink="http://www.w3.org/1999/xlink"><linearGradient id="SVGID_1_" gradientUnits="userSpaceOnUse" x1="256" x2="256" y1="512" y2="0"><stop offset="0" stop-color="#5558ff"/><stop offset="1" stop-color="#00c0ff"/></linearGradient><g><g><g><path d="m346 60c-8.284 0-15 6.716-15 15s6.716 15 15 15 15-6.716 15-15-6.716-15-15-15zm-120 90h60c8.284 0 15-6.716 15-15s-6.716-15-15-15h-60c-8.284 0-15 6.716-15 15s6.716 15 15 15zm194.634-82.44c-3.748-37.874-35.79-67.56-74.634-67.56-36.219 0-66.523 25.809-73.493 60h-33.014c-6.97-34.191-37.274-60-73.493-60-38.844 0-70.886 29.686-74.634 67.56-52.517 18.406-91.366 68.185-91.366 127.44 0 57.897 47.552 105 106 105h45v137c0 41.355 33.645 75 75 75h60c41.355 0 75-33.645 75-75 0-14.79 0-121.444 0-137h45c58.448 0 106-47.103 106-105 0-59.085-38.691-108.979-91.366-127.44zm-314.634 202.44c-36.702 0-67.409-25.808-74.471-60h44.471c36.22 0 66.522 25.808 73.491 60zm300 0h-43.491c6.968-34.192 37.271-60 73.491-60h44.471c-7.062 34.192-37.769 60-74.471 60zm30-90c-57.897 0-105 47.103-105 105v152c0 24.813-20.187 45-45 45h-60c-24.813 0-45-20.187-45-45 0-32.723 0-118.011 0-152 0-57.897-47.103-105-105-105h-44.891c6.043-41.382 36.712-75.949 78.73-86.719 6.969-1.786 11.688-8.269 11.247-15.449-1.594-26.04 19.105-47.832 44.914-47.832 24.813 0 45 20.187 45 45 0 8.284 6.716 15 15 15h60c8.284 0 15-6.716 15-15 0-24.813 20.187-45 45-45 25.765 0 46.51 21.747 44.913 47.832-.441 7.181 4.278 13.663 11.247 15.449 42.018 10.77 72.687 45.337 78.73 86.719zm-270-120c-8.284 0-15 6.716-15 15s6.716 15 15 15 15-6.716 15-15-6.716-15-15-15zm150 120h-120c-8.284 0-15 6.716-15 15s6.716 15 15 15h120c8.284 0 15-6.716 15-15s-6.716-15-15-15zm-90 242c-8.284 0-15 6.716-15 15s6.716 15 15 15 15-6.716 15-15-6.716-15-15-15zm60-182h-60c-8.284 0-15 6.716-15 15s6.716 15 15 15h60c8.284 0 15-6.716 15-15s-6.716-15-15-15zm0 182c-8.284 0-15 6.716-15 15s6.716 15 15 15 15-6.716 15-15-6.716-15-15-15z" fill="url(#SVGID_1_)"/></g></g></g></svg>