<svg id="Capa_1" enable-background="new 0 0 512 512" height="512" viewBox="0 0 512 512" width="512" xmlns="http://www.w3.org/2000/svg" xmlns:xlink="http://www.w3.org/1999/xlink"><linearGradient id="SVGID_1_" gradientUnits="userSpaceOnUse" x1="256" x2="256" y1="512" y2="0"><stop offset="0" stop-color="#5558ff"/><stop offset="1" stop-color="#00c0ff"/></linearGradient><g><g><g><path d="m286 332c-8.284 0-15 6.716-15 15v30c0 8.284 6.716 15 15 15s15-6.716 15-15v-30c0-8.284-6.716-15-15-15zm-60 0c-8.284 0-15 6.716-15 15v30c0 8.284 6.716 15 15 15s15-6.716 15-15v-30c0-8.284-6.716-15-15-15zm90-180c-8.284 0-15 6.716-15 15s6.716 15 15 15 15-6.716 15-15-6.716-15-15-15zm-120 0c-8.284 0-15 6.716-15 15s6.716 15 15 15 15-6.716 15-15-6.716-15-15-15zm255 150c0-21.7-3.271-23.972-33.657-169.693-16.412-76.664-84.267-132.307-161.343-132.307s-144.93 55.643-161.343 132.307c-30.575 146.626-33.657 148.037-33.657 169.693 0 42.278 22.667 81.948 62.576 110.263-1.617 7.547-2.576 15.732-2.576 24.737 0 21.95 15.42 41.762 43.42 55.787 24.737 12.39 57.261 19.213 91.58 19.213s66.843-6.823 91.58-19.213c28-14.025 43.42-33.837 43.42-55.787 0-9.005-.959-17.19-2.576-24.737 39.909-28.315 62.576-67.984 62.576-110.263zm-195 180c-60.096 0-105-23.758-105-45 0-25.166 9.467-41.259 20.429-59.895 11.517-19.579 24.571-41.77 24.571-75.105 0-33.084 26.916-60 60-60s60 26.916 60 60c0 33.335 13.054 55.526 24.571 75.105 10.962 18.636 20.429 34.729 20.429 59.895 0 21.242-44.904 45-105 45zm121.905-99.358c-3.637-7.414-7.64-14.228-11.476-20.747-10.962-18.636-20.429-34.729-20.429-59.895 0-49.626-40.374-90-90-90s-90 40.374-90 90c0 25.166-9.467 41.259-20.429 59.895-3.835 6.52-7.839 13.333-11.476 20.747-27.585-22.038-43.095-50.705-43.095-80.642 0-16.268 1.546-13.548 32.992-163.413 13.47-62.92 68.988-108.587 132.008-108.587 63.021 0 118.538 45.667 132.008 108.587 31.447 149.872 32.992 147.15 32.992 163.413 0 29.937-15.51 58.604-43.095 80.642z" fill="url(#SVGID_1_)"/></g></g></g></svg>