<svg id="Capa_1" enable-background="new 0 0 512 512" height="512" viewBox="0 0 512 512" width="512" xmlns="http://www.w3.org/2000/svg" xmlns:xlink="http://www.w3.org/1999/xlink"><linearGradient id="SVGID_1_" gradientUnits="userSpaceOnUse" x1="256" x2="256" y1="511" y2="1"><stop offset="0" stop-color="#a93aff"/><stop offset="1" stop-color="#ff81ff"/></linearGradient><g><g><g><path d="m266.606 185.394c-5.857-5.858-15.355-5.858-21.213 0l-60 60c-4.565 4.565-5.697 11.54-2.81 17.314l60 120c2.541 5.082 7.735 8.292 13.417 8.292s10.876-3.21 13.416-8.292l60-120c2.888-5.774 1.756-12.749-2.81-17.314zm-10.606 157.065-41.749-83.497 41.749-41.749 41.749 41.749zm-83.292-159.876-30-15c-7.406-3.704-16.418-.702-20.124 6.708-3.705 7.41-.702 16.419 6.708 20.125l30 15c7.424 3.712 16.427.687 20.124-6.708 3.705-7.41.702-16.419-6.708-20.125zm196.584-15-30 15c-7.41 3.705-10.413 12.715-6.708 20.125 3.705 7.412 12.716 10.413 20.124 6.708l30-15c7.41-3.705 10.413-12.715 6.708-20.125-3.704-7.409-12.713-10.413-20.124-6.708zm127.708 313.417c-24.935 0-46-20.607-46-45v-240c0-107.523-87.477-195-195-195s-195 87.477-195 195v240c0 24.393-21.065 45-46 45-8.284 0-15 6.716-15 15s6.716 15 15 15h181c24.507 0 46.306-11.814 60-30.047 13.694 18.233 35.493 30.047 60 30.047h181c8.284 0 15-6.716 15-15s-6.716-15-15-15zm-91 0c-24.813 0-45-20.187-45-45 0-8.284-6.716-15-15-15s-15 6.716-15 15c0 16.871 5.603 32.456 15.041 45h-30.041c-24.813 0-45-20.187-45-45 0-8.284-6.716-15-15-15s-15 6.716-15 15c0 24.813-20.187 45-45 45h-30.041c9.438-12.544 15.041-28.129 15.041-45 0-8.284-6.716-15-15-15s-15 6.716-15 15c0 24.813-20.187 45-45 45h-30.353c9.959-12.947 15.353-28.582 15.353-45v-240c0-90.981 74.019-165 165-165s165 74.019 165 165v240c0 16.418 5.394 32.053 15.353 45z" fill="url(#SVGID_1_)"/></g></g></g></svg>