<svg id="Capa_1" enable-background="new 0 0 512 512" height="512" viewBox="0 0 512 512" width="512" xmlns="http://www.w3.org/2000/svg" xmlns:xlink="http://www.w3.org/1999/xlink"><linearGradient id="SVGID_1_" gradientUnits="userSpaceOnUse" x1="256" x2="256" y1="511.999" y2=".001"><stop offset="0" stop-color="#fd5900"/><stop offset="1" stop-color="#ffde00"/></linearGradient><g><g><g><path d="m412.284.183c-26.578-1.555-52.393 6.898-72.671 23.462-13.059-8.281-28.4-12.335-44.162-11.518-14.258.739-27.878 5.42-39.451 13.418-11.573-7.998-25.192-12.679-39.451-13.418-15.735-.816-31.09 3.233-44.149 11.51-20.311-16.588-46.181-25.037-72.817-23.446-56.662 3.386-99.583 53.76-99.583 109.844 0 98.232 29.97 172.701 31.77 179.708 2.042 6.125 7.774 10.257 14.23 10.257 53.228 0 78.042-21.321 105-52.563v37.563c0 41.355-33.645 75-75 75-8.284 0-15 6.716-15 15s6.716 15 15 15c57.897 0 105-47.103 105-105v-5.103c32.404 44.877 29.858 96.186 30 97.103 0 74.439 60.561 135 135 135 8.284 0 15-6.716 15-15v-45c0-6.883-4.685-12.883-11.362-14.552-28.638-7.159-48.638-32.776-48.638-62.295 0-34.718 10.964-68.895 30-95.257v5.103c0 57.897 47.103 105 105 105 8.284 0 15-6.716 15-15s-6.716-15-15-15c-41.355 0-75-33.645-75-75v-37.562c26.959 31.241 51.774 52.562 105 52.562 6.456 0 12.188-4.131 14.23-10.257 1.743-6.787 31.77-82.126 31.77-179.738 0-56.148-43.02-106.505-99.716-109.821zm43.023 269.458c-37.56-2.652-53.542-20.042-80.267-52.05 2.104-5.576 3.821-11.318 5.127-17.194l10.135-45.609c3.908-17.584 4.104-35.336.581-52.761-1.641-8.119-9.553-13.371-17.674-11.73-8.12 1.642-13.372 9.555-11.73 17.675 2.686 13.285 2.53 26.847-.462 40.309l-10.135 45.609c-4.021 18.092-13.129 34.538-26.339 47.558-34.027 33.537-53.543 82.271-53.543 133.705 0 39.29 24.148 73.867 60 87.789v17.988c-50.817-7.3-90-51.126-90-103.932-.276-1.444 4.982-77.869-53.544-135.554-13.209-13.02-22.316-29.464-26.338-47.556l-10.135-45.609c-2.991-13.462-3.146-27.024-.461-40.31 1.641-8.12-3.612-16.033-11.732-17.674-8.121-1.641-16.033 3.611-17.674 11.731-3.521 17.425-3.325 35.176.582 52.76l10.135 45.61c1.306 5.876 3.023 11.618 5.127 17.193-26.724 32.008-42.707 49.398-80.267 52.05-17.714-53.538-26.693-107.227-26.693-159.604 0-41.704 32.018-77.545 71.372-79.897 22.325-1.335 43.892 7.183 59.176 23.366 5.564 5.893 14.805 6.3 20.865.917 20.227-17.971 47.658-15.139 63.98 1.184 5.854 5.854 15.357 5.857 21.213 0 15.95-15.948 43.357-19.533 63.985-1.18 6.061 5.388 15.305 4.983 20.871-.912 15.264-16.162 36.778-24.695 59.069-23.382 39.408 2.306 71.469 38.137 71.469 79.873 0 52.389-8.979 106.088-26.693 159.637zm-259.307-119.642c-8.284 0-15 6.716-15 15s6.716 15 15 15 15-6.716 15-15-6.716-15-15-15zm120 0c-8.284 0-15 6.716-15 15s6.716 15 15 15 15-6.716 15-15-6.716-15-15-15z" fill="url(#SVGID_1_)"/></g></g></g></svg>