<svg id="Capa_1" enable-background="new 0 0 512 512" height="512" viewBox="0 0 512 512" width="512" xmlns="http://www.w3.org/2000/svg" xmlns:xlink="http://www.w3.org/1999/xlink"><linearGradient id="SVGID_1_" gradientUnits="userSpaceOnUse" x1="256" x2="256" y1="421" y2="91"><stop offset="0" stop-color="#5558ff"/><stop offset="1" stop-color="#00c0ff"/></linearGradient><g><g><g><path d="m226 241c-8.284 0-15 6.716-15 15s6.716 15 15 15 15-6.716 15-15-6.716-15-15-15zm-90-90c-8.284 0-15 6.716-15 15s6.716 15 15 15 15-6.716 15-15-6.716-15-15-15zm312.672 33.459c1.548-6.025 2.328-12.199 2.328-18.459 0-41.355-33.645-75-75-75-26.118 0-49.892 13.421-63.465 35.034-19.055-3.343-38.023-5.034-56.535-5.034-18.511 0-37.479 1.691-56.535 5.035-13.572-21.614-37.346-35.035-63.465-35.035-41.355 0-75 33.645-75 75 0 6.259.78 12.433 2.328 18.459-40.39 31.317-63.328 67.899-63.328 101.541 0 38.017 28.098 72.921 79.117 98.285 47.625 23.676 110.444 36.715 176.883 36.715s129.258-13.039 176.883-36.715c51.019-25.364 79.117-60.268 79.117-98.285 0-33.642-22.937-70.223-63.328-101.541zm-29.144 172.962c-43.556 21.654-101.632 33.579-163.528 33.579s-119.972-11.925-163.528-33.579c-31.767-15.792-52.679-35.616-59.775-56.049 37.076 1.552 67.674 7.78 99.809 14.326 36.931 7.523 75.119 15.302 123.494 15.302s86.563-7.779 123.494-15.302c32.135-6.546 62.732-12.774 99.809-14.326-7.096 20.434-28.007 40.257-59.775 56.049zm-46.022-71.119c-37.107 7.558-72.155 14.698-117.506 14.698s-80.399-7.14-117.506-14.698c-32.421-6.604-65.814-13.404-106.216-14.967 6.631-22.428 27.401-47.741 57.47-69.136 5.784-4.116 7.892-11.723 5.049-18.229-2.52-5.763-3.797-11.81-3.797-17.97 0-24.813 20.187-45 45-45 18.19 0 34.485 10.855 41.515 27.656 2.776 6.635 9.875 10.365 16.907 8.893 20.789-4.345 41.507-6.549 61.578-6.549 20.072 0 40.79 2.204 61.578 6.549 7.035 1.471 14.132-2.259 16.907-8.893 7.03-16.8 23.326-27.656 41.515-27.656 24.813 0 45 20.187 45 45 0 6.162-1.277 12.208-3.796 17.969-2.844 6.505-.737 14.114 5.048 18.23 30.068 21.395 50.839 46.708 57.47 69.136-40.402 1.562-73.795 8.362-106.216 14.967zm2.494-135.302c-8.284 0-15 6.716-15 15s6.716 15 15 15 15-6.716 15-15-6.716-15-15-15zm-90 90c-8.284 0-15 6.716-15 15s6.716 15 15 15 15-6.716 15-15-6.716-15-15-15z" fill="url(#SVGID_1_)"/></g></g></g></svg>