<svg id="Capa_1" enable-background="new 0 0 512 512" height="512" viewBox="0 0 512 512" width="512" xmlns="http://www.w3.org/2000/svg" xmlns:xlink="http://www.w3.org/1999/xlink"><linearGradient id="SVGID_1_" gradientUnits="userSpaceOnUse" x1="256" x2="256" y1="512" y2="0"><stop offset="0" stop-color="#59351f"/><stop offset="1" stop-color="#AF8C68"/></linearGradient><g><g><g><path d="m196 212c-8.284 0-15 6.716-15 15s6.716 15 15 15 15-6.716 15-15-6.716-15-15-15zm301-60h-61c-19.05 0-36.452 7.151-49.695 18.894-8.929-23.969-29.777-42.182-55.305-47.385v-36.089c17.459-6.192 30-22.865 30-42.42 0-24.813-20.187-45-45-45s-45 20.187-45 45c0 19.555 12.541 36.228 30 42.42v34.58h-90v-34.58c17.459-6.192 30-22.865 30-42.42 0-24.813-20.187-45-45-45s-45 20.187-45 45c0 19.555 12.541 36.228 30 42.42v36.089c-25.528 5.203-46.376 23.415-55.305 47.385-13.243-11.743-30.645-18.894-49.695-18.894h-61c-8.284 0-15 6.716-15 15 0 41.355 33.645 75 75 75h46v15c0 49.542 17.276 75.456 32.52 98.321 14.745 22.118 27.48 41.221 27.48 81.679v15c0 33.084 26.916 60 60 60h30c33.084 0 60-26.916 60-60v-15c0-40.458 12.735-59.561 27.48-81.679 15.244-22.865 32.52-48.779 32.52-98.321v-15h46c41.355 0 75-33.645 75-75 0-8.284-6.716-15-15-15zm-422 60c-19.557 0-36.239-12.539-42.43-30h43.43c19.557 0 36.239 12.539 42.43 30zm241-182c8.271 0 15 6.729 15 15s-6.729 15-15 15-15-6.729-15-15 6.729-15 15-15zm-120 0c8.271 0 15 6.729 15 15s-6.729 15-15 15-15-6.729-15-15 6.729-15 15-15zm75 452h-30c-16.542 0-30-13.458-30-30s13.458-30 30-30h30c16.542 0 30 13.458 30 30s-13.458 30-30 30zm90-225c0 40.458-12.735 59.561-27.48 81.679-11.191 16.786-23.468 35.229-29.21 63.444-9.537-6.389-20.994-10.123-33.31-10.123h-30c-12.316 0-23.773 3.734-33.309 10.124-5.742-28.216-18.02-46.659-29.21-63.444-14.746-22.119-27.481-41.222-27.481-81.68v-60c0-24.813 20.187-45 45-45h120c24.813 0 45 20.187 45 45zm76-45h-43.43c6.19-17.461 22.873-30 42.43-30h43.43c-6.191 17.461-22.873 30-42.43 30zm-121 0c-8.284 0-15 6.716-15 15s6.716 15 15 15 15-6.716 15-15-6.716-15-15-15z" fill="url(#SVGID_1_)"/></g></g></g></svg>