<svg id="Capa_1" enable-background="new 0 0 512.004 512.004" height="512" viewBox="0 0 512.004 512.004" width="512" xmlns="http://www.w3.org/2000/svg" xmlns:xlink="http://www.w3.org/1999/xlink"><linearGradient id="SVGID_1_" gradientUnits="userSpaceOnUse" x1="256.002" x2="256.002" y1="512.002" y2=".002"><stop offset="0" stop-color="#59351f"/><stop offset="1" stop-color="#AF8C68"/></linearGradient><g><g><g><path d="m505.184 212.43-114.182-74.31v-18.118c0-16.542 13.458-30 30-30s30 13.458 30 30c0 8.284 6.716 15 15 15s15-6.716 15-15v-30c0-49.626-40.374-90-90-90s-90 40.374-90 90v1.072c-4.938-.708-9.948-1.072-15-1.072h-60c-5.053 0-10.063.363-15 1.071v-1.071c0-49.626-40.374-90-90-90s-90 40.374-90 90v30c0 8.284 6.716 15 15 15s15-6.716 15-15c0-16.542 13.458-30 30-30s30 13.458 30 30v18.118l-114.182 74.31c-6.938 4.515-8.907 13.797-4.399 20.74 14.696 22.635 37.434 38.543 64.023 44.795 18.862 4.435 38.206 3.682 56.192-1.993 2.878 18.343 9.523 35.994 19.648 51.939l45.899 71.401c2.457 3.821 5.43 7.174 8.779 10.022-.628 3.498-.961 7.057-.961 10.666 0 13.622 8.241 32.069 25.193 56.396 11.561 16.589 22.97 29.848 23.451 30.404 2.849 3.302 6.995 5.2 11.356 5.2s8.507-1.898 11.356-5.2c.48-.556 11.89-13.815 23.451-30.404 16.953-24.327 25.193-42.774 25.193-56.396 0-3.609-.333-7.168-.961-10.667 3.35-2.848 6.323-6.201 8.78-10.023l45.945-71.471c10.091-15.893 16.727-33.53 19.603-51.868 17.988 5.675 37.33 6.429 56.192 1.992 26.589-6.252 49.326-22.161 64.022-44.796 4.508-6.94 2.54-16.222-4.398-20.737zm-174.182-122.428c0-33.084 26.916-60 60-60 24.29 0 45.255 14.509 54.685 35.315-7.533-3.414-15.891-5.315-24.685-5.315-32.62 0-59.225 26.171-59.965 58.616-16.365-10.435-20.403-13.865-30.035-18.463zm-240-30c-8.794 0-17.152 1.901-24.685 5.315 9.429-20.807 30.395-35.315 54.685-35.315 33.084 0 60 26.916 60 60v10.147c-9.581 4.574-13.514 7.934-30.035 18.469-.74-32.445-27.345-58.616-59.965-58.616zm165.006 413.241c-15.958-20.757-30.006-43.895-30.006-53.241h60c0 9.616-14.078 32.596-29.994 53.241zm127.487-232.436c-4.641-2.677-10.357-2.675-14.997.006-4.639 2.68-7.497 7.631-7.497 12.988v1.201c0 20.066-5.728 39.693-16.518 56.688l-45.899 71.399c-2.783 4.329-7.487 6.913-12.583 6.913h-15v-38.787l25.606-25.606c5.858-5.858 5.858-15.355 0-21.213-5.857-5.858-15.355-5.858-21.213 0l-19.394 19.393-19.394-19.393c-5.857-5.858-15.355-5.858-21.213 0s-5.858 15.355 0 21.213l25.606 25.606v38.787h-15c-5.096 0-9.8-2.584-12.583-6.912l-45.854-71.329c-10.836-17.065-16.563-36.692-16.563-56.759v-1.201c0-5.357-2.857-10.309-7.497-12.989-4.635-2.677-10.352-2.684-14.997-.005-29.796 17.183-67.939 11.275-91.448-12.264 6.667-4.327 131.43-85.536 148-96.319 12.123-7.996 26.28-12.222 40.941-12.222h60c14.661 0 28.819 4.226 41.019 12.271 22.324 14.528 128.507 83.67 147.923 96.27-23.504 23.538-61.647 29.446-91.445 12.264zm-187.493-30.805c-8.284 0-15 6.716-15 15s6.716 15 15 15 15-6.716 15-15-6.716-15-15-15zm120 0c-8.284 0-15 6.716-15 15s6.716 15 15 15 15-6.716 15-15-6.716-15-15-15z" fill="url(#SVGID_1_)"/></g></g></g></svg>