<svg id="Capa_1" enable-background="new 0 0 512 512" height="512" viewBox="0 0 512 512" width="512" xmlns="http://www.w3.org/2000/svg" xmlns:xlink="http://www.w3.org/1999/xlink"><linearGradient id="SVGID_1_" gradientUnits="userSpaceOnUse" x1="256" x2="256" y1="512" y2="0"><stop offset="0" stop-color="#fd5900"/><stop offset="1" stop-color="#ffde00"/></linearGradient><g><g><g><path d="m196 212c-8.284 0-15 6.716-15 15s6.716 15 15 15 15-6.716 15-15-6.716-15-15-15zm90 120h-60c-8.284 0-15 6.716-15 15s6.716 15 15 15h60c8.284 0 15-6.716 15-15s-6.716-15-15-15zm127.454-99.95-59.987-89.98c-.002-.003-.004-.006-.005-.009-8.374-12.562-22.378-20.061-37.462-20.061-14.673 0-25.84 4.581-35.692 8.622-8.344 3.422-15.549 6.378-24.308 6.378s-15.964-2.956-24.308-6.378c-9.852-4.041-21.019-8.622-35.692-8.622-15.081 0-29.082 7.497-37.455 20.053-.002.002-.004.004-.005.007-6.457 9.685-54.277 81.415-60 90.001-4.933 7.397-7.54 16.022-7.54 24.939 0 24.813 20.187 45 45 45 8.271 0 15 6.729 15 15v30c0 57.897 47.103 105 105 105s105-47.103 105-105v-30c0-8.271 6.729-15 15-15 24.813 0 45-20.187 45-45 0-8.918-2.607-17.542-7.54-24.941-.002-.003-.004-.005-.006-.009zm-37.454 39.95c-24.813 0-45 20.187-45 45v30c0 41.355-33.645 75-75 75s-75-33.645-75-75v-30c0-24.813-20.187-45-45-45-8.271 0-15-6.729-15-15 0-4.666 2.036-7.309 2.501-8.299l60-90s.001-.001.001-.002c2.797-4.195 7.469-6.699 12.498-6.699 8.759 0 15.964 2.956 24.308 6.378 9.852 4.041 21.019 8.622 35.692 8.622s25.84-4.581 35.692-8.622c8.344-3.422 15.549-6.378 24.308-6.378 5.029 0 9.701 2.505 12.498 6.7.002.002.004.004.005.007l59.99 89.985c.002.003.004.006.005.009 1.636 2.454 2.501 5.323 2.501 8.298.001 8.272-6.728 15.001-14.999 15.001zm-150 30c8.284 0 15-6.716 15-15s-6.716-15-15-15-15 6.716-15 15 6.716 15 15 15zm212.537-181.819c-53.672-77.5-118.498-120.181-182.537-120.181s-128.865 42.681-182.537 120.181c-43.941 63.447-73.463 142.543-73.463 196.819 0 52.887 27.285 102.359 76.828 139.304 48.163 35.916 111.795 55.696 179.172 55.696 67.378 0 131.009-19.78 179.173-55.696 49.543-36.945 76.827-86.417 76.827-139.304 0-54.276-29.522-133.372-73.463-196.819zm-21.298 312.073c-43.018 32.079-100.28 49.746-161.239 49.746-60.958 0-118.221-17.667-161.239-49.746-41.761-31.142-64.761-72.073-64.761-115.254 0-94.503 104.612-287 226-287s226 192.497 226 287c0 43.181-22.999 84.112-64.761 115.254zm-101.239-220.254c-8.284 0-15 6.716-15 15s6.716 15 15 15 15-6.716 15-15-6.716-15-15-15zm-30 60c-8.284 0-15 6.716-15 15s6.716 15 15 15 15-6.716 15-15-6.716-15-15-15z" fill="url(#SVGID_1_)"/></g></g></g></svg>