<svg id="Capa_1" enable-background="new 0 0 512 512" height="512" viewBox="0 0 512 512" width="512" xmlns="http://www.w3.org/2000/svg" xmlns:xlink="http://www.w3.org/1999/xlink"><linearGradient id="SVGID_1_" gradientUnits="userSpaceOnUse" x1="256" x2="256" y1="512" y2="0"><stop offset="0" stop-color="#fd5900"/><stop offset="1" stop-color="#ffde00"/></linearGradient><g><g><g><path d="m166 210c8.284 0 15-6.716 15-15s-6.716-15-15-15-15 6.716-15 15 6.716 15 15 15zm180 0c8.284 0 15-6.716 15-15s-6.716-15-15-15-15 6.716-15 15 6.716 15 15 15zm-180 90c-8.284 0-15 6.716-15 15s6.716 15 15 15c8.271 0 15 6.729 15 15 0 8.284 6.716 15 15 15s15-6.716 15-15c0-24.813-20.187-45-45-45zm242.204-39.536 7.204-36.018c6.72-33.599 2.658-68.339-11.399-99.2l22.965-17.223c15.045-11.282 24.026-29.235 24.026-48.023 0-33.084-26.916-60-60-60-18.787 0-36.739 8.982-48.022 24.026l-16.887 22.516c-23.375-8.59-49.579-5.234-70.09 8.988-20.512-14.222-46.717-17.578-70.091-8.988l-16.887-22.516c-11.284-15.044-29.236-24.026-48.023-24.026-33.084 0-60 26.916-60 60 0 18.788 8.982 36.74 24.027 48.023l22.964 17.223c-14.057 30.861-18.119 65.601-11.399 99.2l7.204 36.018c-25.937 19.137-42.796 49.903-42.796 84.536 0 41.802 24.557 77.973 60 94.855v57.145c0 8.284 6.716 15 15 15h60c8.284 0 15-6.716 15-15v-47h90v47c0 8.284 6.716 15 15 15h60c8.284 0 15-6.716 15-15v-57.145c35.443-16.882 60-53.053 60-94.855 0-34.633-16.858-65.399-42.796-84.536zm-305.197-176.456c-7.631-5.732-12.007-14.481-12.007-24.008 0-16.542 13.458-30 30-30 9.535 0 18.291 4.383 24.022 12.026l22.181 29.575c3.627 8.102 13.577 11.375 21.34 6.771 18.338-10.873 41.716-7.9 56.85 7.235 5.857 5.858 15.355 5.858 21.213 0 15.134-15.133 38.511-18.108 56.85-7.235 7.742 4.59 17.704 1.357 21.341-6.772l22.181-29.574c5.732-7.643 14.488-12.026 24.022-12.026 16.542 0 30 13.458 30 30 0 17.919-14.287 25.334-15.367 26.529-.01.008-27.877 20.907-27.877 20.907l-.205.115c-7.227 4.043-9.812 13.19-5.764 20.42 15.358 27.423 20.402 59.595 14.203 90.592l-5.456 27.279c-10.82-3.78-22.44-5.842-34.534-5.842h-180c-12.094 0-23.714 2.062-34.535 5.842l-5.456-27.279c-6.199-30.997-1.155-63.169 14.203-90.592 4.046-7.225 1.468-16.372-5.761-20.419l-.206-.115c-.208-.156-31.357-23.518-31.238-23.429zm77.993 397.992h-30v-33.076c4.901.704 9.907 1.076 15 1.076h15zm180 0h-30v-32h15c5.093 0 10.099-.372 15-1.076zm-15-62h-180c-41.355 0-75-33.645-75-75s33.645-75 75-75h180c41.355 0 75 33.645 75 75s-33.645 75-75 75zm0-120c-24.813 0-45 20.187-45 45 0 8.284 6.716 15 15 15s15-6.716 15-15c0-8.271 6.729-15 15-15 8.284 0 15-6.716 15-15s-6.716-15-15-15z" fill="url(#SVGID_1_)"/></g></g></g></svg>