<svg id="Capa_1" enable-background="new 0 0 512 512" height="512" viewBox="0 0 512 512" width="512" xmlns="http://www.w3.org/2000/svg" xmlns:xlink="http://www.w3.org/1999/xlink"><linearGradient id="SVGID_1_" gradientUnits="userSpaceOnUse" x1="256" x2="256" y1="512" y2="0"><stop offset="0" stop-color="#fd5900"/><stop offset="1" stop-color="#ffde00"/></linearGradient><g><g><g><path d="m196 271c-8.284 0-15 6.716-15 15s6.716 15 15 15 15-6.716 15-15-6.716-15-15-15zm316-256c0-8.284-6.716-15-15-15-73.821 0-142.056 42.791-175.124 108.148-20.022-11.249-42.466-17.148-65.876-17.148s-45.854 5.899-65.875 17.148c-33.068-65.357-101.304-108.148-175.125-108.148-8.284 0-15 6.716-15 15 0 82.566 51.942 153.329 123.758 182.154l-30.964 106.238c-7.061 24.215 7.212 49.368 31.283 55.992 7.579 28.088 19.333 72.538 28.766 107.443 6.745 26.606 30.639 45.173 58.157 45.173h90c27.517 0 51.41-18.568 58.156-45.17 9.433-34.906 21.188-79.357 28.767-107.445 24.032-6.613 38.355-31.735 31.283-55.991l-30.964-106.239c71.708-28.782 123.758-99.47 123.758-182.155zm-481.228 15.77c57.899 5.664 109.728 42.147 134.643 95.162-13.278 12.058-24.099 26.725-31.702 42.898-56.832-23.229-96.97-77.151-102.941-138.06zm359.633 281.018c2.798 9.601-4.436 19.212-14.405 19.212-6.679 0-12.714 4.563-14.48 11.087-9.56 35.377-31.403 117.211-31.425 117.298-3.343 13.315-15.307 22.615-29.095 22.615h-30v-39.787l25.606-25.606c5.858-5.858 5.858-15.355 0-21.213-5.857-5.858-15.355-5.858-21.213 0l-19.393 19.393-19.394-19.394c-5.857-5.858-15.355-5.858-21.213 0s-5.858 15.355 0 21.213l25.607 25.607v39.787h-30c-13.788 0-25.751-9.3-29.095-22.615-.021-.087-21.865-81.92-31.425-117.298-1.77-6.54-7.815-11.087-14.48-11.087-9.961 0-17.207-9.602-14.404-19.212l33.584-115.229c12.966-44.488 54.425-75.559 100.82-75.559 46.396 0 87.854 31.071 100.82 75.559zm-12.117-142.958c-7.603-16.173-18.424-30.84-31.702-42.898 24.914-53.015 76.743-89.498 134.642-95.162-5.971 60.909-46.109 114.831-102.94 138.06zm-62.288 102.17c-8.284 0-15 6.716-15 15s6.716 15 15 15 15-6.716 15-15-6.716-15-15-15z" fill="url(#SVGID_1_)"/></g></g></g></svg>