<svg id="Capa_1" enable-background="new 0 0 512 512" height="512" viewBox="0 0 512 512" width="512" xmlns="http://www.w3.org/2000/svg" xmlns:xlink="http://www.w3.org/1999/xlink"><linearGradient id="SVGID_1_" gradientUnits="userSpaceOnUse" x1="256" x2="256" y1="466" y2="46"><stop offset="0" stop-color="#00b59c"/><stop offset="1" stop-color="#9cffac"/></linearGradient><g><g><g><path d="m166 226c-8.284 0-15 6.716-15 15s6.716 15 15 15 15-6.716 15-15-6.716-15-15-15zm141.828 40.466c-5.956-23.826-27.269-40.466-51.828-40.466s-45.871 16.64-51.828 40.466l-10.789 43.154c-8.424 33.698 17.038 66.38 51.829 66.38h21.577c34.734 0 60.267-32.628 51.828-66.38zm-41.039 79.534h-21.577c-15.229 0-26.424-14.306-22.724-29.104l10.789-43.154c2.611-10.446 11.955-17.742 22.723-17.742s20.112 7.296 22.725 17.742l10.788 43.154c3.692 14.776-7.471 29.104-22.724 29.104zm79.211-120c-8.284 0-15 6.716-15 15s6.716 15 15 15 15-6.716 15-15-6.716-15-15-15zm45-180c-44.454 0-84.588 24.214-105.442 62.644-19.432-3.514-39.684-3.514-59.114 0-20.856-38.43-60.99-62.644-105.444-62.644-66.72 0-121 53.832-121 120 0 36.719 17.207 71.212 47.207 94.634 4.102 3.202 9.571 4.049 14.448 2.24 4.879-1.81 8.471-6.019 9.491-11.122l1.92-9.602c5.982 3.775 12.393 6.836 19.105 9.112-.778 6.537-1.171 13.135-1.171 19.738v30c0 65.858 47.477 121.273 111.83 132.396 10.135 19.833 30.456 32.604 53.17 32.604s43.034-12.771 53.17-32.604c64.353-11.123 111.83-66.538 111.83-132.396v-30c0-6.604-.393-13.202-1.172-19.738 6.713-2.275 13.123-5.336 19.105-9.112l1.92 9.603c1.021 5.103 4.613 9.312 9.491 11.122 4.882 1.812 10.349.962 14.448-2.24 30.002-23.423 47.208-57.916 47.208-94.635 0-66.168-54.28-120-121-120zm73.692 171.975-1.387-6.932c-1.133-5.663-5.416-10.172-11.013-11.596-5.593-1.423-11.513.492-15.213 4.927-9.347 11.2-22.354 18.616-36.626 20.883-8.45 1.342-14.089 9.492-12.327 17.893 1.907 9.092 2.874 18.462 2.874 27.85v30c0 53.494-40.387 98.123-93.944 103.81-5.898.626-10.874 4.67-12.693 10.316-4.023 12.485-15.421 20.874-28.363 20.874s-24.34-8.389-28.362-20.874c-1.819-5.646-6.794-9.69-12.693-10.316-53.558-5.687-93.945-50.316-93.945-103.81v-30c0-9.386.967-18.756 2.874-27.851 1.755-8.375-3.85-16.545-12.328-17.892-14.272-2.267-27.279-9.683-36.625-20.883-2.89-3.463-7.131-5.39-11.517-5.39-7.124 0-13.302 5.025-14.708 12.059l-1.387 6.932c-11.079-15.266-17.309-33.509-17.309-51.975 0-49.626 40.822-90 91-90 36.548 0 69.202 21.818 83.189 55.583 2.866 6.918 10.398 10.664 17.643 8.774 22.179-5.782 46.157-5.782 68.337 0 7.241 1.891 14.775-1.855 17.643-8.774 13.987-33.765 46.64-55.583 83.188-55.583 50.178 0 91 40.374 91 90 0 18.466-6.23 36.709-17.308 51.975z" fill="url(#SVGID_1_)"/></g></g></g></svg>