<svg id="Capa_1" enable-background="new 0 0 512 512" height="512" viewBox="0 0 512 512" width="512" xmlns="http://www.w3.org/2000/svg" xmlns:xlink="http://www.w3.org/1999/xlink"><linearGradient id="SVGID_1_" gradientUnits="userSpaceOnUse" x1="256" x2="256" y1="512" y2="0"><stop offset="0" stop-color="#a93aff"/><stop offset="1" stop-color="#ff81ff"/></linearGradient><g><g><g><path d="m296.606 297.607c5.858-5.858 5.858-15.355 0-21.213-5.857-5.858-15.355-5.858-21.213 0l-19.393 19.393-19.394-19.394c-5.857-5.858-15.355-5.858-21.213 0s-5.858 15.355 0 21.213l25.607 25.607v28.345c-9.594 2.579-18.394 7.622-25.606 14.835-5.858 5.858-5.858 15.355 0 21.213 5.857 5.858 15.355 5.858 21.213 0 10.693-10.693 28.094-10.693 38.787 0 5.857 5.857 15.355 5.858 21.213 0s5.858-15.355 0-21.213c-7.213-7.213-16.012-12.256-25.606-14.835v-28.345zm-93.898-114.024-30-15c-7.407-3.703-16.419-.702-20.124 6.708s-.702 16.42 6.708 20.125l30 15c7.419 3.709 16.424.691 20.124-6.708 3.705-7.409.702-16.42-6.708-20.125zm136.584-15-30 15c-7.41 3.705-10.413 12.715-6.708 20.125 3.698 7.397 12.702 10.418 20.124 6.708l30-15c7.41-3.705 10.413-12.715 6.708-20.125-3.704-7.408-12.714-10.412-20.124-6.708zm104.566-118.94c-45.072-44.806-97.28-49.643-117.633-49.643-22.346 0-45.89 5.681-70.076 16.898-24.282-11.218-47.921-16.898-70.374-16.898-20.338 0-72.507 4.831-117.57 49.578-45.258 44.941-68.205 114.727-68.205 207.422 0 10.231.551 20.364 1.636 30.116.633 5.684 4.442 10.513 9.822 12.452s11.395.651 15.508-3.323l5.238-5.06c4.928 67.61 25.57 131.551 79.118 172.647 47.008 36.077 104.665 43.284 142.817 48.053.617.077 1.239.116 1.86.116s1.243-.039 1.86-.116c38.367-4.796 96.349-12.043 143.227-48.114 53.388-41.078 73.831-105.069 78.718-172.579l5.23 5.053c4.113 3.974 10.131 5.261 15.509 3.323 5.38-1.939 9.189-6.77 9.821-12.453 1.086-9.755 1.636-19.887 1.636-30.115 0-92.644-22.926-162.409-68.142-207.357zm32.564 196.569c-4.329-4.183-10.741-5.371-16.281-3.02-5.542 2.351-9.141 7.788-9.141 13.808 0 87.821-22.311 147.679-68.208 182.995-39.698 30.546-91.657 37.489-126.792 41.889-34.928-4.374-86.579-11.28-126.413-41.851-46.152-35.42-68.587-95.291-68.587-183.033 0-6.02-3.599-11.457-9.141-13.808-5.518-2.343-11.935-1.179-16.281 3.02l-5.551 5.362c.842-81.67 20.787-142.449 59.316-180.708 37.145-36.884 79.812-40.866 96.432-40.866 19.81 0 41.228 5.706 63.659 16.96 4.241 2.128 9.237 2.123 13.475-.011 22.327-11.247 43.63-16.949 63.316-16.949 16.634 0 59.332 3.987 96.483 40.919 38.496 38.268 58.424 99.026 59.265 180.655zm-150.203-184.212c-25.855 0-50.375 8.695-70.219 24.701-19.844-16.006-44.362-24.701-70.218-24.701-31.582 0-61.18 14.008-81.202 38.431-20.022 24.424-27.953 56.193-21.76 87.162l24.002 119.999c5.434 27.179 21.345 50.915 44.178 66.336v3.072c0 41.355 33.645 75 75 75h60c41.355 0 75-33.645 75-75v-3.072c22.833-15.421 38.744-39.156 44.178-66.334l24.002-120c6.193-30.969-1.737-62.738-21.76-87.162s-49.619-38.432-81.201-38.432zm73.543 119.709-24.002 120.002c-4.3 21.509-17.811 40.006-37.067 50.75-4.749 2.649-7.692 7.661-7.692 13.099v11.44c0 24.813-20.187 45-45 45h-60c-24.813 0-45-20.187-45-45v-11.44c0-5.438-2.943-10.45-7.692-13.099-19.257-10.744-32.768-29.241-37.067-50.751l-24.002-120c-4.425-22.12 1.24-44.813 15.542-62.258 14.301-17.446 35.442-27.452 58-27.452 21.928 0 42.544 8.54 58.051 24.046l1.562 1.561c5.857 5.857 15.354 5.857 21.211 0l1.563-1.562c15.505-15.505 36.121-24.045 58.05-24.045 22.559 0 43.699 10.005 58.001 27.451s19.967 40.138 15.542 62.258z" fill="url(#SVGID_1_)"/></g></g></g></svg>