<svg id="Capa_1" enable-background="new 0 0 512 512" height="512" viewBox="0 0 512 512" width="512" xmlns="http://www.w3.org/2000/svg" xmlns:xlink="http://www.w3.org/1999/xlink"><linearGradient id="SVGID_1_" gradientUnits="userSpaceOnUse" x1="256" x2="256" y1="496.5" y2="15.5"><stop offset="0" stop-color="#fd5900"/><stop offset="1" stop-color="#ffde00"/></linearGradient><g><g><g><path d="m226 286.5c8.284 0 15-6.716 15-15s-6.716-15-15-15-15 6.716-15 15 6.716 15 15 15zm-30-90c-8.284 0-15 6.716-15 15s6.716 15 15 15 15-6.716 15-15-6.716-15-15-15zm90 120h-60c-8.284 0-15 6.716-15 15s6.716 15 15 15h60c8.284 0 15-6.716 15-15s-6.716-15-15-15zm30-120c-8.284 0-15 6.716-15 15s6.716 15 15 15 15-6.716 15-15-6.716-15-15-15zm22.893-87.511c-29.303-6.369-58.864-.289-82.893 16.694-24.029-16.983-53.593-23.063-82.893-16.694-40.354 8.769-72.584 41.835-80.2 82.281-8.412 44.68 11.439 88.16 50.575 110.771 4.637 2.679 7.518 7.663 7.518 13.006v16.453c0 57.897 47.103 105 105 105s105-47.103 105-105v-16.453c0-5.344 2.881-10.327 7.519-13.006 39.136-22.611 58.987-66.091 50.574-110.771-7.616-40.446-39.845-73.512-80.2-82.281zm14.618 167.075c-13.885 8.021-22.511 22.959-22.511 38.983v16.453c0 41.355-33.645 75-75 75s-75-33.645-75-75v-16.453c0-16.024-8.625-30.961-22.51-38.983-27.953-16.15-42.123-47.254-36.101-79.243 5.415-28.757 28.357-52.273 57.088-58.517 23.892-5.19 48.144 1.177 66.483 17.697 5.706 5.14 14.373 5.14 20.079 0 18.27-16.458 42.502-22.909 66.483-17.697 28.731 6.244 51.673 29.76 57.088 58.517 6.024 31.989-8.146 63.094-36.099 79.243zm158.489-185.564c0-41.355-33.645-75-75-75-23.143 0-45.662 11.516-60.022 29.765-34.937-18.859-76.432-28.765-120.978-28.765-44.545 0-86.04 9.906-120.978 28.765-14.36-18.249-36.88-29.765-60.022-29.765-41.355 0-75 33.645-75 75 0 28.15 16.595 54.381 41.128 67.378-6.727 21.314-10.128 44.328-10.128 68.622 0 64.352 23.592 131.193 64.727 183.384 39.999 50.75 96.421 86.616 160.273 86.616 63.853 0 120.274-35.866 160.273-86.616 41.135-52.191 64.727-119.032 64.727-183.384 0-24.294-3.401-47.308-10.127-68.622 24.532-12.997 41.127-39.228 41.127-67.378zm-64.052 44.4c-8.625 2.368-13.283 11.724-9.957 20.037 8.632 21.577 13.009 45.654 13.009 71.563 0 57.742-21.245 117.814-58.288 164.814-38.213 48.484-86.765 75.186-136.712 75.186-49.946 0-98.498-26.702-136.711-75.186-37.044-47-58.289-107.072-58.289-164.814 0-25.91 4.377-49.987 13.01-71.562 3.322-8.302-1.322-17.667-9.957-20.038-19.732-5.415-34.053-24.088-34.053-44.4 0-24.813 20.187-45 45-45 17.242 0 33.954 10.661 41.585 26.529 3.891 8.089 13.985 10.976 21.564 6.158 32.614-20.73 73.366-31.687 117.851-31.687 44.486 0 85.238 10.957 117.851 31.687 7.574 4.814 17.671 1.938 21.564-6.158 7.631-15.868 24.343-26.529 41.585-26.529 24.813 0 45 20.187 45 45 0 20.313-14.321 38.985-34.052 44.4zm-161.948 121.6c-8.284 0-15 6.716-15 15s6.716 15 15 15 15-6.716 15-15-6.716-15-15-15z" fill="url(#SVGID_1_)"/></g></g></g></svg>