<svg id="Capa_1" enable-background="new 0 0 512 512" height="512" viewBox="0 0 512 512" width="512" xmlns="http://www.w3.org/2000/svg" xmlns:xlink="http://www.w3.org/1999/xlink"><linearGradient id="SVGID_1_" gradientUnits="userSpaceOnUse" x1="256" x2="256" y1="512" y2="0"><stop offset="0" stop-color="#00b59c"/><stop offset="1" stop-color="#9cffac"/></linearGradient><g><g><g><path d="m512 105c0-57.897-47.552-105-106-105-54.982 0-100.223 42.48-104.641 96.342-14.417-4.128-29.634-6.342-45.359-6.342s-30.942 2.214-45.359 6.342c-4.418-53.862-49.66-96.342-104.641-96.342-58.449 0-106 47.103-106 105 0 55.009 42.927 100.268 97.34 104.648-4.127 14.415-6.34 29.629-6.34 45.352 0 15.384 2.109 30.492 6.209 45h-21.209c-8.284 0-15 6.716-15 15s6.716 15 15 15h32.989c7.595 14.842 13.565 21.702 31.169 47.802l-38.901 12.967c-7.859 2.62-12.107 11.115-9.487 18.974 2.625 7.874 11.129 12.102 18.974 9.487l47.085-15.695c38.491 56.053 60.656 88.344 61.227 89.161 8.417 12.088 22.228 19.304 36.944 19.304s28.527-7.216 37.001-19.385c.471-.675 1.998-2.908 61.171-89.08l47.085 15.695c7.846 2.615 16.349-1.615 18.974-9.487 2.619-7.859-1.628-16.354-9.487-18.974l-38.901-12.967c17.702-26.243 23.607-33.023 31.169-47.803h32.988c8.284 0 15-6.716 15-15s-6.716-15-15-15h-21.209c4.1-14.508 6.209-29.616 6.209-45 0-15.723-2.213-30.938-6.34-45.352 54.413-4.379 97.34-49.638 97.34-104.647zm-406 75c-41.907 0-76-33.645-76-75s34.093-75 76-75c41.355 0 75 33.645 75 75 0 1.029-.027 2.058-.068 3.086-30.814 15.809-56.036 41.031-71.845 71.845-1.029.042-2.059.069-3.087.069zm162.327 295.552c-2.812 4.037-7.42 6.448-12.327 6.448s-9.515-2.411-12.271-6.367l-11.56-16.834c7.056-4.43 15.223-6.799 23.83-6.799 8.608 0 16.774 2.369 23.83 6.799zm114.994-175.552h-37.321c-8.284 0-15 6.716-15 15s6.716 15 15 15h22.238c-2.77 4.141 5.748-8.361-26.009 37.931l-21.486-7.162c-7.858-2.619-16.354 1.628-18.974 9.487-2.619 7.859 1.628 16.354 9.487 18.974l13.301 4.434-27.766 40.435c-12.054-7.802-26.232-12.099-40.791-12.099s-28.737 4.297-40.792 12.099l-27.766-40.435 13.301-4.434c7.859-2.62 12.107-11.115 9.487-18.974s-11.113-12.107-18.974-9.487l-21.486 7.162c-31.43-45.816-22.962-33.382-26.01-37.931h22.24c8.284 0 15-6.716 15-15s-6.716-15-15-15h-37.326c-5.061-14.323-7.674-29.489-7.674-45 0-74.439 60.561-135 135-135s135 60.561 135 135c0 15.506-2.612 30.667-7.679 45zm22.679-120c-1.028 0-2.058-.027-3.086-.068-15.809-30.814-41.031-56.036-71.845-71.845-.042-1.029-.069-2.059-.069-3.087 0-41.355 33.645-75 75-75 41.906 0 76 33.645 76 75s-34.094 75-76 75zm-210 60c-8.284 0-15 6.716-15 15s6.716 15 15 15 15-6.716 15-15-6.716-15-15-15zm120 0c-8.284 0-15 6.716-15 15s6.716 15 15 15 15-6.716 15-15-6.716-15-15-15z" fill="url(#SVGID_1_)"/></g></g></g></svg>