<svg id="Capa_1" enable-background="new 0 0 512 512" height="512" viewBox="0 0 512 512" width="512" xmlns="http://www.w3.org/2000/svg" xmlns:xlink="http://www.w3.org/1999/xlink"><linearGradient id="SVGID_1_" gradientUnits="userSpaceOnUse" x1="256" x2="256" y1="512" y2="0"><stop offset="0" stop-color="#fd5900"/><stop offset="1" stop-color="#ffde00"/></linearGradient><g><g><g><path d="m166 90c8.284 0 15-6.716 15-15s-6.716-15-15-15-15 6.716-15 15 6.716 15 15 15zm180 0c8.284 0 15-6.716 15-15s-6.716-15-15-15-15 6.716-15 15 6.716 15 15 15zm69.275 13.469c3.774-9.001 5.725-18.618 5.725-28.469 0-41.355-33.645-75-75-75h-180c-41.355 0-75 33.645-75 75 0 9.851 1.951 19.468 5.725 28.469-39.932 20.21-65.725 61.07-65.725 106.531 0 66.168 53.832 120 120 120v167c0 8.284 6.716 15 15 15h180c8.284 0 15-6.716 15-15v-167c66.168 0 120-53.832 120-120 0-45.461-25.793-86.321-65.725-106.531zm-54.275 196.531h-15c-8.284 0-15 6.716-15 15v167h-150v-167c0-8.284-6.716-15-15-15h-15c-49.626 0-90-40.374-90-90 0-38.554 24.842-72.707 61.817-84.983 4.577-1.52 8.143-5.146 9.586-9.748 1.442-4.601.585-9.615-2.304-13.476-5.953-7.955-9.099-17.22-9.099-26.793 0-24.813 20.187-45 45-45h180c24.813 0 45 20.187 45 45 0 9.574-3.146 18.838-9.1 26.793-2.89 3.861-3.747 8.875-2.304 13.476 1.442 4.601 5.01 8.228 9.586 9.748 36.975 12.276 61.818 46.429 61.818 84.983 0 49.626-40.374 90-90 90zm-15-150h-30.311c-14.085-18.694-36.234-30-59.689-30s-45.604 11.306-59.689 30c0 0-30.635 0-30.712.002-24.629.217-44.599 20.32-44.599 44.998 0 24.813 20.187 45 45 45 41.355 0 75 33.645 75 75 0 8.284 6.716 15 15 15s15-6.716 15-15c0-41.355 33.645-75 75-75 24.813 0 45-20.187 45-45s-20.187-45-45-45zm0 60c-38.147 0-71.61 20.452-90 50.963-18.39-30.511-51.853-50.963-90-50.963-8.271 0-15-6.729-15-15s6.729-15 15-15h38.322c5.34 0 10.278-2.839 12.964-7.455 8.216-14.117 22.689-22.545 38.714-22.545 15.396 0 29.358 7.779 37.716 20.907 2.294 5.348 7.605 9.093 13.792 9.093h38.492c8.271 0 15 6.729 15 15s-6.729 15-15 15z" fill="url(#SVGID_1_)"/></g></g></g></svg>