<svg id="Capa_1" enable-background="new 0 0 512 512" height="512" viewBox="0 0 512 512" width="512" xmlns="http://www.w3.org/2000/svg" xmlns:xlink="http://www.w3.org/1999/xlink"><linearGradient id="SVGID_1_" gradientUnits="userSpaceOnUse" x1="256" x2="256" y1="496" y2="16"><stop offset="0" stop-color="#a93aff"/><stop offset="1" stop-color="#ff81ff"/></linearGradient><g><g><g><path d="m165 196c-8.284 0-15 6.716-15 15s6.716 15 15 15 15-6.716 15-15-6.716-15-15-15zm-63.036-12.656c2.16-1.862-1.842 1.531 0 0zm184.036 192.656c-6.423 0-11.9-4.066-14.034-9.753l24.641-24.641c5.858-5.858 5.858-15.355 0-21.213-5.857-5.858-15.355-5.858-21.213 0l-19.394 19.394-19.394-19.393c-5.857-5.858-15.355-5.858-21.213 0s-5.858 15.355 0 21.213l24.641 24.641c-2.134 5.686-7.611 9.752-14.034 9.752-8.284 0-15 6.716-15 15s6.716 15 15 15c11.515 0 22.033-4.347 30-11.486 7.967 7.139 18.485 11.486 30 11.486 8.284 0 15-6.716 15-15s-6.716-15-15-15zm84.717-225.792c-17.899-15.244-42.419-18.526-63.992-8.563-21.419 9.893-34.725 30.72-34.725 54.355 0 10.243.646 12.6 18.402 67.234v.001c10.284 32.205 39.377 52.765 71.598 52.765 31.552 0 59.114-19.337 70.217-49.263 12.47-33.611-.228-67.768-25.788-86.238zm33.373 106.094c-5.326 14.357-19.18 29.698-42.09 29.698-19.684 0-36.964-12.793-43-31.834-.017-.054-.034-.106-.052-.16-15.366-48.452-16.948-51.128-16.948-58.006 0-11.977 6.469-22.115 17.304-27.119 8.483-3.918 21.336-4.883 31.984 4.187 41.374 35.026 39.064 33.299 40.706 34.355 14.182 12.884 18.711 31.052 12.096 48.879zm107.91-165.302c0-41.355-33.645-75-75-75-26.722 0-51.453 14.556-64.756 37.186-34.969-23.098-74.162-37.186-116.244-37.186-42.073 0-81.265 14.082-116.244 37.186-13.303-22.63-38.034-37.186-64.756-37.186-41.355 0-75 33.645-75 75 0 28.814 16.796 55.151 42.416 67.55-27.031 46.158-42.416 96.78-42.416 142.45 0 60.107 26.698 110.521 77.207 145.791 45.443 31.733 108.94 49.209 178.793 49.209s133.35-17.476 178.793-49.209c50.509-35.27 77.207-85.684 77.207-145.791 0-45.67-15.385-96.292-42.416-142.45 25.62-12.399 42.416-38.736 42.416-67.55zm-75-45c24.813 0 45 20.187 45 45 0 18.553-11.599 35.397-28.895 42.031-16.167-22.809-35.084-43.853-56.564-61.747 7.475-15.263 23.282-25.284 40.459-25.284zm-407 45c0-24.813 20.187-45 45-45 17.178 0 32.984 10.021 40.459 25.284-21.439 17.86-40.364 38.891-56.564 61.747-17.296-6.634-28.895-23.478-28.895-42.031zm452 210c0 49.875-22.263 91.783-64.382 121.194-40.454 28.249-97.851 43.806-161.618 43.806s-121.164-15.557-161.618-43.806c-42.119-29.411-64.382-71.319-64.382-121.194 0-53.791 25.814-118.53 67.37-168.953 45.73-55.488 102.066-86.047 158.63-86.047s112.9 30.559 158.63 86.047c41.556 50.423 67.37 115.162 67.37 168.953zm-242-105c0-23.635-13.306-44.462-34.726-54.355-21.572-9.963-46.092-6.681-63.968 8.543-28.972 24.462-37.402 31.543-39.343 33.156-.128.11-.273.236-.447.385-24.561 21.134-32.889 52.941-21.734 83.009 11.104 29.926 38.666 49.262 70.218 49.262 32.748 0 61.467-21.115 71.533-52.563 18.333-54.999 18.467-58.861 18.467-67.437zm-46.94 57.984c-.02.061-.04.121-.059.182-6.036 19.041-23.317 31.834-43.001 31.834-22.909 0-36.764-15.341-42.09-29.697-6.613-17.825-2.312-36.744 13.589-49.975.013-.01 2.069-1.742 39.237-33.28 10.624-9.049 23.475-8.085 31.96-4.167 10.835 5.004 17.304 15.142 17.304 27.119 0 6.882-1.503 9.302-16.94 57.984zm153.94-57.984c-8.284 0-15 6.716-15 15s6.716 15 15 15 15-6.716 15-15-6.716-15-15-15z" fill="url(#SVGID_1_)"/></g></g></g></svg>