<svg id="Capa_1" enable-background="new 0 0 512 512" height="512" viewBox="0 0 512 512" width="512" xmlns="http://www.w3.org/2000/svg" xmlns:xlink="http://www.w3.org/1999/xlink"><linearGradient id="SVGID_1_" gradientUnits="userSpaceOnUse" x1="256" x2="256" y1="512" y2="0"><stop offset="0" stop-color="#fd5900"/><stop offset="1" stop-color="#ffde00"/></linearGradient><g><g><g><path d="m226 332c-8.284 0-15 6.716-15 15s6.716 15 15 15 15-6.716 15-15-6.716-15-15-15zm90-120c-8.284 0-15 6.716-15 15s6.716 15 15 15 15-6.716 15-15-6.716-15-15-15zm60-90c24.813 0 45-20.187 45-45s-20.187-45-45-45-45 20.187-45 45c0 9.213 2.787 17.784 7.556 24.925l-24.802 33.07c-13.219-6.283-27.612-10.476-42.754-12.157v-35.418c17.459-6.192 30-22.865 30-42.42 0-24.813-20.187-45-45-45s-45 20.187-45 45c0 19.555 12.541 36.228 30 42.42v35.418c-15.142 1.682-29.535 5.875-42.754 12.157l-24.802-33.07c4.769-7.141 7.556-15.712 7.556-24.925 0-24.813-20.187-45-45-45s-45 20.187-45 45 20.187 45 45 45c4.686 0 9.206-.722 13.457-2.057l23.196 30.928c-31.433 24.739-51.653 63.117-51.653 106.129 0 19.9 4.434 39.635 12.856 57.527.042.094.073.189.117.282l81.356 171.466c7.415 15.627 23.379 25.725 40.671 25.725s33.256-10.098 40.671-25.725l81.356-171.466c.044-.094.075-.19.117-.284 8.422-17.891 12.856-37.625 12.856-57.525 0-43.012-20.22-81.39-51.653-106.129l23.196-30.928c4.251 1.335 8.771 2.057 13.457 2.057zm-240-30c-8.271 0-15-6.729-15-15s6.729-15 15-15 15 6.729 15 15-6.729 15-15 15zm120-62c8.271 0 15 6.729 15 15s-6.729 15-15 15-15-6.729-15-15 6.729-15 15-15zm13.567 443.415c-2.474 5.215-7.8 8.585-13.567 8.585s-11.093-3.37-13.567-8.585l-70.354-148.278c44.424-10.118 70.187-29.416 83.921-43.709 13.734 14.292 39.498 33.59 83.921 43.708zm91.433-216.415c0 13.835-2.744 27.563-7.994 40.247-32.261-6.328-52.713-17.874-64.517-26.886-13.287-10.147-18.588-19.219-19.115-20.157-2.457-5.154-7.55-8.301-13.267-8.374-5.741-.074-10.953 3.319-13.524 8.462-.179.358-18.854 34.275-83.588 46.956-5.251-12.684-7.995-26.412-7.995-40.248 0-57.897 47.103-105 105-105s105 47.103 105 105zm15-195c8.271 0 15 6.729 15 15s-6.729 15-15 15-15-6.729-15-15 6.729-15 15-15zm-180 150c-8.284 0-15 6.716-15 15s6.716 15 15 15 15-6.716 15-15-6.716-15-15-15zm90 150c8.284 0 15-6.716 15-15s-6.716-15-15-15-15 6.716-15 15 6.716 15 15 15z" fill="url(#SVGID_1_)"/></g></g></g></svg>