<svg id="Capa_1" enable-background="new 0 0 512 512" height="512" viewBox="0 0 512 512" width="512" xmlns="http://www.w3.org/2000/svg" xmlns:xlink="http://www.w3.org/1999/xlink"><linearGradient id="SVGID_1_" gradientUnits="userSpaceOnUse" x1="256" x2="256" y1="481.5" y2="30.5"><stop offset="0" stop-color="#59351f"/><stop offset="1" stop-color="#AF8C68"/></linearGradient><g><g><g><path d="m196 211.5c8.284 0 15-6.716 15-15s-6.716-15-15-15-15 6.716-15 15 6.716 15 15 15zm120 0c8.284 0 15-6.716 15-15s-6.716-15-15-15-15 6.716-15 15 6.716 15 15 15zm11.96 80.093c-19.436-12.957-44.991-20.093-71.96-20.093s-52.524 7.136-71.96 20.093c-21.306 14.204-33.04 33.704-33.04 54.907s11.734 40.703 33.04 54.907c19.436 12.957 44.991 20.093 71.96 20.093s52.524-7.136 71.96-20.093c21.307-14.204 33.04-33.704 33.04-54.907s-11.733-40.703-33.04-54.907zm-71.96 99.907c-40.654 0-75-20.607-75-45s34.346-45 75-45 75 20.607 75 45-34.346 45-75 45zm241-361h-75c-26.242 0-51.352 11.804-68.607 31.563-29.663-19.136-62.374-30.563-97.393-30.563-34.956 0-67.672 11.388-97.393 30.563-17.256-19.759-42.365-31.563-68.607-31.563h-75c-8.284 0-15 6.716-15 15v75c0 33.786 19.464 64.924 48.861 80.522-11.481 29.18-17.861 58.752-17.861 85.478 0 112.769 106.531 195 225 195 119.085 0 225-82.749 225-195 0-26.726-6.38-56.298-17.861-85.478 29.397-15.598 48.861-46.736 48.861-80.522v-75c0-8.284-6.716-15-15-15zm-467 90v-60h60c16.467 0 32.789 7.392 44.345 19.518-13.642 11.481-26.537 24.793-38.557 39.841-13.318 16.672-24.943 34.884-34.54 53.705-18.646-10.788-31.248-31.43-31.248-53.064zm226 331c-107.523 0-195-74.019-195-165 0-46.277 22.312-102.956 58.227-147.917 34.26-42.889 82.237-77.083 136.773-77.083 54.51 0 102.489 34.164 136.772 77.083 35.916 44.961 58.228 101.64 58.228 147.917 0 90.981-87.477 165-195 165zm226-331c0 21.634-12.602 42.276-31.248 53.064-9.597-18.821-21.222-37.033-34.54-53.705-12.021-15.048-24.915-28.36-38.557-39.841 11.555-12.126 27.877-19.518 44.345-19.518h60zm-256 211c-8.284 0-15 6.716-15 15s6.716 15 15 15 15-6.716 15-15-6.716-15-15-15zm60 0c-8.284 0-15 6.716-15 15s6.716 15 15 15 15-6.716 15-15-6.716-15-15-15z" fill="url(#SVGID_1_)"/></g></g></g></svg>