<svg id="Capa_1" enable-background="new 0 0 511.986 511.986" height="512" viewBox="0 0 511.986 511.986" width="512" xmlns="http://www.w3.org/2000/svg" xmlns:xlink="http://www.w3.org/1999/xlink"><linearGradient id="SVGID_1_" gradientUnits="userSpaceOnUse" x1="255.993" x2="255.993" y1="465.993" y2="45.993"><stop offset="0" stop-color="#00b59c"/><stop offset="1" stop-color="#9cffac"/></linearGradient><g><g><g><path d="m165.993 225.993c-8.284 0-15 6.716-15 15s6.716 15 15 15 15-6.716 15-15-6.716-15-15-15zm344.115 37.719c-.465-.837-11.079-19.875-29.115-45.562v-157.157c0-8.284-6.716-15-15-15-43.255 0-83.818 21.255-109.065 56.334-32.909-17.484-66.798-26.334-100.935-26.334s-68.026 8.85-100.935 26.334c-25.247-35.079-65.81-56.334-109.065-56.334-8.284 0-15 6.716-15 15v157.157c-18.036 25.688-28.65 44.725-29.115 45.562-1.219 2.195-1.851 4.721-1.877 7.119-.028 2.428.577 4.895 1.605 6.929.968 1.914 24.181 47.394 66.61 93.401 50.268 54.508 113.947 94.831 187.777 94.831 73.853 0 137.531-40.348 187.777-94.831 42.429-46.007 65.642-91.488 66.61-93.401 1.002-1.984 1.635-4.448 1.605-6.929-.027-2.387-.655-4.924-1.877-7.119zm-475.336 11.982c65.782-44.666 106.356-72.215 106.456-72.284 6.198-4.247 15.79-7.417 24.764-7.417 24.813 0 45 20.187 45 45 0 15.085-7.507 29.096-20.081 37.478l-103.621 69.08c-25.643-28.445-43.618-56.661-52.518-71.857zm236.221 159.617v-38.105l25.606-25.606c5.858-5.858 5.858-15.355 0-21.213-5.857-5.858-15.355-5.858-21.213 0l-19.394 19.393-19.394-19.393c-5.857-5.858-15.355-5.858-21.213 0s-5.858 15.355 0 21.213l25.606 25.606v38.127c-45.795-3.957-90.186-26.074-132.384-65.938l98.944-65.963c20.939-13.959 33.44-37.301 33.44-62.44 0-41.355-33.645-75-75-75-18.253 0-37.051 8.102-44.232 14.374l-60.768 41.261v-144.526c31.571 4.687 59.855 23.971 76.046 52.652 1.993 3.531 5.331 6.104 9.252 7.134 3.923 1.031 8.093.428 11.564-1.668 32.115-19.393 65.133-29.227 98.138-29.227s66.022 9.833 98.138 29.227c3.47 2.096 7.643 2.698 11.564 1.668s7.259-3.603 9.252-7.134c16.191-28.681 44.475-47.966 76.046-52.652v144.527l-60.768-41.261c-7.236-6.32-25.999-14.374-44.232-14.374-41.355 0-75 33.645-75 75 0 25.138 12.501 48.48 33.44 62.44l98.86 65.906c-34.641 32.615-79.442 61.308-132.298 65.972zm153.627-87.809-103.547-69.031c-12.574-8.383-20.081-22.393-20.081-37.478 0-24.813 20.187-45 45-45 8.023 0 17.585 2.572 24.911 7.517l106.301 72.178c-8.896 15.158-26.856 43.287-52.584 71.814zm-78.627-121.509c-8.284 0-15 6.716-15 15s6.716 15 15 15 15-6.716 15-15-6.716-15-15-15z" fill="url(#SVGID_1_)"/></g></g></g></svg>