<svg id="Capa_1" enable-background="new 0 0 511.952 511.952" height="512" viewBox="0 0 511.952 511.952" width="512" xmlns="http://www.w3.org/2000/svg" xmlns:xlink="http://www.w3.org/1999/xlink"><linearGradient id="SVGID_1_" gradientUnits="userSpaceOnUse" x1="255.976" x2="255.976" y1="511.952" y2="0"><stop offset="0" stop-color="#fd5900"/><stop offset="1" stop-color="#ffde00"/></linearGradient><g><g><g><path d="m165.976 390.952c-8.284 0-15 6.716-15 15s6.716 15 15 15c8.271 0 15 6.729 15 15 0 8.284 6.716 15 15 15s15-6.716 15-15c0-24.813-20.187-45-45-45zm0-150c8.284 0 15-6.716 15-15s-6.716-15-15-15-15 6.716-15 15 6.716 15 15 15zm345.905-226.484c-.297-7.838-6.583-14.123-14.42-14.42-2.772-.109-68.309-2.124-107.634 37.202-.225.225-.449.451-.672.679-8.585-4.554-18.223-6.976-28.178-6.976h-210c-9.955 0-19.594 2.422-28.178 6.976-.223-.227-.447-.453-.671-.678-39.328-39.327-104.868-37.31-107.636-37.203-7.838.297-14.123 6.582-14.421 14.42-.105 2.771-2.124 68.309 37.203 107.635 12.389 12.389 28.411 21.78 47.716 27.983-11.449 114.66-24.014 237.836-24.014 240.867 0 21.711 11.827 41.444 30.314 51.96 3.418 37.678 35.024 69.04 74.686 69.04h180c39.684 0 71.269-31.382 74.686-69.04 18.487-10.517 30.314-30.249 30.314-51.96 0-2.98-12.638-126.938-24.014-240.867 19.306-6.203 35.327-15.593 47.717-27.983 39.326-39.326 37.307-104.865 37.202-107.635zm-104.873 110.069c-7.149 1.861-11.879 8.651-11.147 16.002 7.496 75.272 24.16 239.955 25.111 250.914-.211 12.452-8.269 23.53-20.184 27.666-6.267 2.175-10.36 8.208-10.066 14.835 1.202 27.013-20.586 47.997-44.746 47.997h-180c-24.121 0-45.949-20.942-44.746-47.997.294-6.627-3.8-12.66-10.066-14.835-11.915-4.136-19.972-15.214-20.184-27.666.841-9.691 18.145-180.969 25.111-250.914.732-7.352-3.998-14.142-11.147-16.002-2.291-.843-28.199-5.39-46.457-23.647-20.218-20.218-26.107-51.729-27.794-70.258 18.494 1.651 49.895 7.505 70.221 27.831 2.549 2.549 4.966 5.383 7.182 8.421 5.302 7.268 15.782 8.268 22.361 2.118 5.554-5.191 12.841-8.05 20.52-8.05h210c7.678 0 14.966 2.859 20.521 8.05 6.589 6.157 17.066 5.14 22.36-2.119 2.218-3.04 4.634-5.873 7.183-8.421 20.218-20.218 51.729-26.107 70.257-27.794-1.65 18.494-7.505 49.895-27.831 70.22-18.384 18.384-44.102 22.782-46.459 23.649zm-61.032 86.415c-8.284 0-15 6.716-15 15s6.716 15 15 15 15-6.716 15-15-6.716-15-15-15zm0 180c-24.813 0-45 20.187-45 45 0 8.284 6.716 15 15 15s15-6.716 15-15c0-8.271 6.729-15 15-15 8.284 0 15-6.716 15-15s-6.716-15-15-15zm-31.618-73.887c-.05-.21-.104-.419-.163-.627l-43.786-154.574c-1.829-6.456-7.722-10.912-14.432-10.912s-12.604 4.456-14.432 10.912c0 0-43.899 154.991-43.949 155.201-8.945 37.714 19.744 73.887 58.381 73.887 38.596 0 67.333-36.141 58.381-73.887zm-58.382 43.887c-19.134 0-33.533-17.814-29.257-36.682l29.257-103.282 29.257 103.282c4.281 18.887-10.141 36.682-29.257 36.682z" fill="url(#SVGID_1_)"/></g></g></g></svg>