<svg id="Capa_1" enable-background="new 0 0 512 512" height="512" viewBox="0 0 512 512" width="512" xmlns="http://www.w3.org/2000/svg" xmlns:xlink="http://www.w3.org/1999/xlink"><linearGradient id="SVGID_1_" gradientUnits="userSpaceOnUse" x1="256" x2="256" y1="512" y2="0"><stop offset="0" stop-color="#5558ff"/><stop offset="1" stop-color="#00c0ff"/></linearGradient><g><g><g><path d="m226.001 150c8.284 0 15-6.716 15-15s-6.716-15-15-15-15 6.716-15 15 6.715 15 15 15zm60 0c8.284 0 15-6.716 15-15s-6.716-15-15-15-15 6.716-15 15 6.715 15 15 15zm-30 60c-57.905 0-105 47.116-105 105v120c0 8.284 6.716 15 15 15s15-6.716 15-15v-30c0-41.355 33.645-75 75-75s75 33.645 75 75v30c0 8.284 6.716 15 15 15s15-6.716 15-15v-120c0-57.908-47.121-105-105-105zm75 121.596c-19.073-19.483-45.646-31.596-75-31.596s-55.927 12.113-75 31.596v-16.596c0-24.485 11.797-46.264 30.002-59.961.021 8.266 6.727 14.961 14.998 14.961 8.284 0 15-6.716 15-15v-13.491c4.848-.988 9.864-1.509 15-1.509s10.152.521 15 1.509v13.491c0 8.284 6.716 15 15 15 8.271 0 14.977-6.695 14.998-14.961 18.205 13.697 30.002 35.476 30.002 59.961zm108.023-127.57-135-180c-11.284-15.045-29.236-24.026-48.023-24.026s-36.739 8.981-48.023 24.026l-135.001 180c-21.632 28.849-13.081 70.453 18.469 88.232-19.683 59.904-30.445 131.964-30.445 204.742 0 8.284 6.716 15 15 15h360c8.284 0 15-6.716 15-15 0-72.778-10.763-144.838-30.444-204.742 31.516-17.759 40.117-59.36 18.467-88.232zm-18.182 277.974h-329.683c1.467-69.803 13.128-137.885 33.207-193.167 3.044-8.379-1.859-17.569-10.533-19.691-21.088-5.159-29.572-30.157-16.855-47.116l135-180c5.732-7.643 14.487-12.026 24.023-12.026s18.291 4.383 24.023 12.026l134.999 179.999c12.718 16.96 4.233 41.958-16.854 47.117-8.659 2.119-13.583 11.298-10.533 19.691 20.078 55.282 31.74 123.364 33.206 193.167z" fill="url(#SVGID_1_)"/></g></g></g></svg>