<svg id="Capa_1" enable-background="new 0 0 512.002 512.002" height="512" viewBox="0 0 512.002 512.002" width="512" xmlns="http://www.w3.org/2000/svg" xmlns:xlink="http://www.w3.org/1999/xlink"><linearGradient id="SVGID_1_" gradientUnits="userSpaceOnUse" x1="256.001" x2="256.001" y1="512.001" y2=".001"><stop offset="0" stop-color="#5558ff"/><stop offset="1" stop-color="#00c0ff"/></linearGradient><g><g><g><path d="m236.607 296.608 19.394-19.394 19.394 19.394c5.857 5.857 15.355 5.858 21.213 0s5.858-15.355 0-21.213l-30-30c-5.857-5.858-15.355-5.858-21.213 0l-30 30c-5.858 5.858-5.858 15.355 0 21.213 5.857 5.858 15.355 5.858 21.212 0zm274.624 195.65c-2.215-5.202-16.824-62.178-64.921-123.367 3.107-11.91 4.69-24.568 4.69-37.89 0-44.903-26.211-96.769-71.914-142.299-20.179-20.103-42.036-36.715-63.023-48.46l-45.916-130.229c-2.115-5.999-7.785-10.012-14.146-10.012s-12.031 4.013-14.146 10.012l-45.917 130.228c-20.987 11.745-42.844 28.357-63.023 48.46-45.702 45.53-71.914 97.396-71.914 142.299 0 13.321 1.583 25.98 4.69 37.89-48.285 61.429-62.602 117.922-64.92 123.367-2.027 6.079.032 12.774 5.125 16.664s12.094 4.114 17.426.56c3.286-1.792 49.732-37.039 119.087-51.616 31.29 15.189 70.012 23.135 113.592 23.135s82.302-7.946 113.592-23.135c68.889 14.479 116.026 49.946 119.087 51.616 5.354 3.569 12.354 3.313 17.425-.56 5.093-3.889 7.153-10.584 5.126-16.663zm-255.23-432.148 22.655 64.254c-8.06-2.195-15.682-3.363-22.655-3.363s-14.595 1.168-22.655 3.363zm-211.769 401.772c9.42-21.073 21.124-41.514 34.721-60.647 7.45 12.836 17.172 24.387 29.078 34.48-21.8 6.578-43.254 15.367-63.799 26.167zm211.769-10.881c-85.495 0-165-34.218-165-120 0-36.441 23.584-81.692 63.086-121.046 34.842-34.711 76.75-58.954 101.914-58.954s67.071 24.243 101.914 58.954c39.502 39.354 63.086 84.605 63.086 121.046 0 85.559-79.153 120-165 120zm147.969-15.286c11.906-10.094 21.628-21.644 29.078-34.48 13.597 19.133 25.301 39.574 34.721 60.648-20.545-10.801-41.998-19.59-63.799-26.168zm-57.969-194.714c-8.284 0-15 6.716-15 15s6.716 15 15 15 15-6.716 15-15-6.716-15-15-15zm-180 30c8.284 0 15-6.716 15-15s-6.716-15-15-15-15 6.716-15 15 6.716 15 15 15zm160.606 64.393c-5.857-5.858-15.355-5.858-21.213 0l-19.394 19.394-19.394-19.394c-5.857-5.858-15.355-5.858-21.213 0l-19.394 19.394-19.394-19.394c-5.857-5.858-15.355-5.858-21.213 0l-30 30c-5.858 5.858-5.858 15.355 0 21.213 5.857 5.858 15.355 5.858 21.213 0l19.394-19.394 19.394 19.394c5.857 5.858 15.355 5.858 21.213 0l19.394-19.394 19.394 19.394c5.857 5.858 15.355 5.858 21.213 0l19.394-19.394 19.394 19.394c5.857 5.857 15.355 5.858 21.213 0s5.858-15.355 0-21.213z" fill="url(#SVGID_1_)"/></g></g></g></svg>