<svg id="Capa_1" enable-background="new 0 0 512 512" height="512" viewBox="0 0 512 512" width="512" xmlns="http://www.w3.org/2000/svg" xmlns:xlink="http://www.w3.org/1999/xlink"><linearGradient id="SVGID_1_" gradientUnits="userSpaceOnUse" x1="256" x2="256" y1="512" y2="0"><stop offset="0" stop-color="#59351f"/><stop offset="1" stop-color="#AF8C68"/></linearGradient><g><g><g><path d="m316 300c-8.284 0-15 6.716-15 15s6.716 15 15 15 15-6.716 15-15-6.716-15-15-15zm121-60h-46v-15.26c6.075-4.618 11.489-10.178 15.993-16.549 42.369-7.623 74.007-44.313 74.007-88.191 0-43.919-31.677-80.575-74.007-88.191-13.992-19.792-36.724-31.809-60.993-31.809-16.3 0-32.071 5.444-45 15.27-12.929-9.826-28.7-15.27-45-15.27s-32.071 5.444-45 15.27c-12.929-9.826-28.7-15.27-45-15.27-24.268 0-47 12.017-60.993 31.809-19.296 3.472-36.951 13.107-50.331 27.601-15.268 16.539-23.676 38.057-23.676 60.59 0 22.532 8.408 44.05 23.675 60.589 13.38 14.495 31.036 24.13 50.332 27.602 4.504 6.371 9.918 11.931 15.993 16.549v15.26h-46c-41.355 0-75 33.645-75 75 0 8.284 6.716 15 15 15h61c16.871 0 32.456-5.603 45-15.041v62.041c0 74.439 60.561 135 135 135s135-60.561 135-135v-62.041c12.544 9.438 28.129 15.041 45 15.041h61c8.284 0 15-6.716 15-15 0-41.355-33.645-75-75-75zm-361 60h-43.43c6.191-17.461 22.874-30 42.43-30h43.43c-6.191 17.461-22.874 30-42.43 30zm285 77c0 52.805-39.184 96.623-90 103.924v-37.711l25.606-25.606c5.858-5.858 5.858-15.355 0-21.213-5.857-5.858-15.355-5.858-21.213 0l-19.393 19.393-19.394-19.394c-5.857-5.858-15.355-5.858-21.213 0s-5.858 15.355 0 21.213l25.607 25.607v37.711c-50.816-7.301-90-51.119-90-103.924v-138.554c21.383 4.454 43.086-.861 60-13.718 12.929 9.828 28.701 15.272 45 15.272 16.3 0 32.071-5.444 45-15.271 16.902 12.847 38.598 18.176 60 13.718zm23.999-190.081c-8.029 14.237-22.973 23.081-38.999 23.081-12.961 0-24.932-5.528-33.707-15.567-2.848-3.259-6.965-5.128-11.293-5.128s-8.445 1.87-11.294 5.128c-8.774 10.039-20.744 15.567-33.706 15.567-12.961 0-24.932-5.528-33.707-15.567-2.848-3.259-6.965-5.128-11.293-5.128s-8.445 1.87-11.294 5.128c-8.774 10.039-20.744 15.567-33.706 15.567-16.026 0-30.969-8.844-38.999-23.081-2.411-4.275-6.762-7.101-11.648-7.564-30.986-2.94-54.353-28.457-54.353-59.355s23.367-56.415 54.353-59.355c4.887-.464 9.237-3.289 11.648-7.564 8.03-14.237 22.973-23.081 38.999-23.081 12.962 0 24.933 5.528 33.706 15.564 2.849 3.259 6.966 5.128 11.294 5.128s8.445-1.869 11.293-5.128c8.774-10.036 20.745-15.564 33.707-15.564s24.933 5.528 33.706 15.564c2.849 3.259 6.966 5.128 11.294 5.128s8.445-1.869 11.293-5.128c8.774-10.036 20.745-15.564 33.707-15.564 16.026 0 30.97 8.844 38.999 23.081 2.411 4.276 6.762 7.101 11.648 7.564 30.987 2.94 54.353 28.458 54.353 59.355 0 30.898-23.366 56.415-54.353 59.355-4.886.464-9.237 3.289-11.648 7.564zm51.001 113.081c-19.556 0-36.239-12.539-42.43-30h43.43c19.556 0 36.239 12.539 42.43 30zm-240 0c-8.284 0-15 6.716-15 15s6.716 15 15 15 15-6.716 15-15-6.716-15-15-15z" fill="url(#SVGID_1_)"/></g></g></g></svg>