<svg id="Capa_1" enable-background="new 0 0 512 512" height="512" viewBox="0 0 512 512" width="512" xmlns="http://www.w3.org/2000/svg" xmlns:xlink="http://www.w3.org/1999/xlink"><linearGradient id="SVGID_1_" gradientUnits="userSpaceOnUse" x1="256" x2="256" y1="451" y2="61"><stop offset="0" stop-color="#5558ff"/><stop offset="1" stop-color="#00c0ff"/></linearGradient><g><g><g><path d="m286 331c-8.284 0-15 6.716-15 15s6.716 15 15 15 15-6.716 15-15-6.716-15-15-15zm195.653-57.551c-6.561-118.252-105.265-212.449-225.653-212.449s-219.092 94.197-225.653 212.449c-17.64 6.092-30.347 22.866-30.347 42.551v120c0 8.284 6.716 15 15 15 52.804 0 96.623-39.183 103.924-90h32.076c0 49.626 47.103 90 105 90s105-40.374 105-90h32.076c7.301 50.817 51.12 90 103.924 90 8.284 0 15-6.716 15-15v-120c0-19.685-12.707-36.459-30.347-42.551zm-225.653-182.449c26.015 0 50.856 5.081 73.59 14.278l-22.861 45.722h-101.458l-22.861-45.722c22.734-9.197 47.575-14.278 73.59-14.278zm-226 328.493v-61.073c4.695 1.665 9.742 2.58 15 2.58h43.475c-5.983 29.341-29.134 52.513-58.475 58.493zm226 1.507c-41.355 0-75-26.916-75-60s33.645-60 75-60 75 26.916 75 60-33.645 60-75 60zm226-1.507c-29.341-5.981-52.492-29.153-58.475-58.493h43.475c5.258 0 10.305-.915 15-2.58zm-15-88.493h-112.006c-14.447-34.92-53.365-60-98.994-60s-84.547 25.08-98.994 60h-112.006c-8.271 0-15-6.729-15-15s6.729-15 15-15c8.284 0 15-6.716 15-15 0-71.015 38.36-133.276 95.542-167.376l23.687 47.376-22.5 45h-20.729c-8.284 0-15 6.716-15 15s6.716 15 15 15h30c5.682 0 10.875-3.21 13.417-8.292l25.854-51.708h101.459l25.854 51.708c2.541 5.082 7.734 8.292 13.416 8.292h30c8.284 0 15-6.716 15-15s-6.716-15-15-15h-20.729l-22.5-45 23.688-47.376c57.181 34.1 95.541 96.361 95.541 167.376 0 8.284 6.716 15 15 15 8.271 0 15 6.729 15 15s-6.729 15-15 15zm-241 0c-8.284 0-15 6.716-15 15s6.716 15 15 15 15-6.716 15-15-6.716-15-15-15z" fill="url(#SVGID_1_)"/></g></g></g></svg>