<svg id="Capa_1" enable-background="new 0 0 512 512" height="512" viewBox="0 0 512 512" width="512" xmlns="http://www.w3.org/2000/svg" xmlns:xlink="http://www.w3.org/1999/xlink"><linearGradient id="SVGID_1_" gradientUnits="userSpaceOnUse" x1="256" x2="256" y1="512" y2="0"><stop offset="0" stop-color="#5558ff"/><stop offset="1" stop-color="#00c0ff"/></linearGradient><g><g><g><path d="m316 151c8.284 0 15-6.716 15-15s-6.716-15-15-15-15 6.716-15 15 6.716 15 15 15zm-120 0c8.284 0 15-6.716 15-15s-6.716-15-15-15-15 6.716-15 15 6.716 15 15 15zm60-151c-107.523 0-195 87.925-195 196v120c0 108.075 87.477 196 195 196s195-87.925 195-196v-120c0-108.075-87.477-196-195-196zm165 316c0 91.533-74.019 166-165 166s-165-74.467-165-166v-120c0-91.533 74.019-166 165-166s165 74.467 165 166zm-105-135h-120c-41.355 0-75 33.645-75 75v30c0 36.219 25.808 66.522 60 73.491v46.509c0 8.284 6.716 15 15 15s15-6.716 15-15v-46.509c18.288-3.727 34.175-14.129 45-28.543 10.825 14.414 26.712 24.816 45 28.543v46.509c0 8.284 6.716 15 15 15s15-6.716 15-15v-46.509c34.192-6.968 60-37.271 60-73.491v-30c0-41.355-33.645-75-75-75zm45 105c0 24.813-20.187 45-45 45-22.839 0-41.744-17.106-44.611-39.177l25.217-25.217c5.858-5.858 5.858-15.355 0-21.213-5.857-5.858-15.355-5.858-21.213 0l-19.393 19.394-19.394-19.393c-5.857-5.858-15.355-5.858-21.213 0s-5.858 15.355 0 21.213l25.217 25.217c-2.866 22.07-21.771 39.176-44.61 39.176-24.813 0-45-20.187-45-45v-30c0-24.813 20.187-45 45-45h120c24.813 0 45 20.187 45 45z" fill="url(#SVGID_1_)"/></g></g></g></svg>