<svg id="Capa_1" enable-background="new 0 0 512 512" height="512" viewBox="0 0 512 512" width="512" xmlns="http://www.w3.org/2000/svg" xmlns:xlink="http://www.w3.org/1999/xlink"><linearGradient id="SVGID_1_" gradientUnits="userSpaceOnUse" x1="256" x2="256" y1="512.001" y2="0"><stop offset="0" stop-color="#5558ff"/><stop offset="1" stop-color="#00c0ff"/></linearGradient><g><g><g><path d="m136 241c-8.284 0-15 6.716-15 15s6.716 15 15 15 15-6.716 15-15-6.716-15-15-15zm240 30c8.284 0 15-6.716 15-15s-6.716-15-15-15-15 6.716-15 15c0 8.285 6.716 15 15 15zm116.514 126.43c-10.59-17.609-24.903-32.598-41.732-43.823.141-2.519.219-5.054.219-7.607v-60c0-74.439-60.561-135-135-135h-12.442c6.241-17.833 23.159-31 42.442-31 41.355 0 75-33.645 75-75v-30c0-6.067-3.654-11.536-9.26-13.858-5.603-2.322-12.056-1.039-16.347 3.251-29.552 29.55-64.765 25.21-66.968 25.607-26.595 0-51.841 8.783-72.426 24.974-20.585-16.191-45.831-24.974-72.426-24.974-2.227-.401-37.455 3.902-66.968-25.607-4.291-4.29-10.743-5.572-16.347-3.251-5.604 2.322-9.259 7.792-9.259 13.858v30c0 41.355 33.645 75 75 75 19.283 0 36.201 13.167 42.442 31h-12.442c-74.439 0-135 60.561-135 135 0 0 .078 65.089.219 67.607-16.829 11.225-31.142 26.214-41.732 43.823-12.748 21.196-19.487 45.253-19.487 69.57v30c0 8.284 6.716 15 15 15 41.845 0 81.665-19.932 107.385-52.893 21.188 13.837 46.477 21.893 73.615 21.893h120c27.138 0 52.427-8.056 73.615-21.893 25.72 32.962 65.54 52.893 107.385 52.893 8.284 0 15-6.716 15-15v-30c0-24.317-6.738-48.374-19.486-69.57zm-401.514-111.43c0-57.897 47.103-105 105-105h30c8.284 0 15-6.716 15-15 0-20.031-7.759-39-21.848-53.412-14.238-14.566-33.114-22.588-53.152-22.588-24.793 0-44.968-20.154-45-44.94 31.24 17.568 59.599 14.599 62.574 14.94 23.352 0 45.307 9.094 61.819 25.607 5.857 5.858 15.355 5.858 21.213 0 16.513-16.513 38.468-25.607 61.82-25.607 3.001-.344 31.205 2.7 62.574-14.94-.032 24.786-20.207 44.94-45 44.94-20.038 0-38.914 8.022-53.152 22.588-14.089 14.413-21.848 33.382-21.848 53.412 0 8.284 6.716 15 15 15h30c57.897 0 105 47.103 105 105v43.936c-24.593-3.474-45.687-15.002-67.802-27.096-28.621-15.653-58.216-31.84-97.198-31.84-38.98 0-68.576 16.186-97.197 31.84-22.115 12.095-43.208 23.623-67.803 27.097zm-61 194.9v-13.9c0-30.522 14.161-60.256 37.262-80.339 6.416 20.268 17.496 38.478 31.974 53.372-16.984 22.126-42.017 36.862-69.236 40.867zm286-29.9h-120c-53.126 0-97.157-39.661-104.054-90.929 31.355-3.635 56.667-17.465 81.252-30.911 26.479-14.481 51.49-28.16 82.802-28.16 31.313 0 56.324 13.679 82.803 28.16 24.586 13.446 49.897 27.276 81.251 30.911-6.897 51.268-50.928 90.929-104.054 90.929zm166 29.9c-27.219-4.005-52.251-18.741-69.236-40.866 14.478-14.894 25.559-33.104 31.974-53.372 23.101 20.082 37.262 49.817 37.262 80.338z" fill="url(#SVGID_1_)"/></g></g></g></svg>