<svg id="Capa_1" enable-background="new 0 0 512.121 512.121" height="512" viewBox="0 0 512.121 512.121" width="512" xmlns="http://www.w3.org/2000/svg" xmlns:xlink="http://www.w3.org/1999/xlink"><linearGradient id="SVGID_1_" gradientUnits="userSpaceOnUse" x1="256.06" x2="256.06" y1="496.06" y2="16.06"><stop offset="0" stop-color="#a93aff"/><stop offset="1" stop-color="#ff81ff"/></linearGradient><g><g><g><path d="m512.121 61.06v-30c0-4.971-2.462-9.619-6.575-12.411-4.114-2.792-9.342-3.365-13.961-1.53l-133.826 53.149c-31.149-15.826-65.808-24.208-101.759-24.208-35.93 0-70.571 8.372-101.706 24.181l-133.757-53.122c-4.62-1.834-9.848-1.262-13.961 1.53-4.114 2.792-6.576 7.441-6.576 12.411v30c0 41.759 20.54 82.126 54.945 107.983l.286.215c-15.841 31.16-24.231 65.835-24.231 101.802v30c0 8.284 6.716 15 15 15h30c41.355 0 75 33.645 75 75 0 66.729 38.271 105 105 105s105-38.271 105-105c0-41.355 33.645-75 75-75h30c8.284 0 15-6.716 15-15v-30c0-35.942-8.378-70.594-24.197-101.737l.372-.28c34.406-25.856 54.946-66.224 54.946-107.983zm-256.121 15c59.027 0 112.008 26.367 147.796 67.937-13.419-5.139-27.876-7.937-42.797-7.937-45.123 0-84.511 25.037-105 61.947-20.489-36.909-59.877-61.947-105-61.947-14.92 0-29.378 2.798-42.797 7.937 35.79-41.57 88.771-67.937 147.798-67.937zm-226-22.903 92.499 36.736c-19.867 14.704-37.469 32.766-51.778 53.428-46.789-37.095-40.168-87.617-40.721-90.164zm421 232.903h-15c-57.897 0-105 47.103-105 105 0 23.179-5.534 41.272-16.448 53.776-9.851 11.286-24.47 18.101-43.552 20.368v-37.931l25.606-25.606c5.858-5.858 5.858-15.355 0-21.213-5.857-5.858-15.355-5.858-21.213 0l-19.393 19.393-19.394-19.394c-5.857-5.858-15.355-5.858-21.213 0s-5.858 15.355 0 21.213l25.607 25.607v37.931c-19.082-2.267-33.702-9.083-43.552-20.368-10.914-12.504-16.448-30.597-16.448-53.776 0-57.897-47.103-105-105-105h-15v-15c0-15.851 1.915-31.261 5.501-46.025 12.968-35.312 46.792-58.975 84.499-58.975 49.626 0 90 40.374 90 90 0 8.284 6.716 15 15 15s15-6.716 15-15c0-49.626 40.374-90 90-90 37.707 0 71.531 23.662 84.499 58.975 3.586 14.764 5.501 30.174 5.501 46.025zm-9.678-142.678c-14.467-20.904-32.139-38.916-51.777-53.458l92.576-36.767c-.564 2.593 6.095 53.114-40.799 90.225zm-72.03 69.262-30 15c-7.41 3.705-10.413 12.715-6.708 20.125 3.706 7.411 12.717 10.412 20.125 6.708l30-15c7.41-3.705 10.413-12.715 6.708-20.125-3.706-7.409-12.716-10.413-20.125-6.708zm-196.584 15-30-15c-7.409-3.705-16.419-.701-20.125 6.708-3.705 7.41-.701 16.42 6.708 20.125l30 15c7.419 3.71 16.425.691 20.125-6.708 3.705-7.41.702-16.42-6.708-20.125z" fill="url(#SVGID_1_)"/></g></g></g></svg>