<svg id="Capa_1" enable-background="new 0 0 512 512" height="512" viewBox="0 0 512 512" width="512" xmlns="http://www.w3.org/2000/svg" xmlns:xlink="http://www.w3.org/1999/xlink"><linearGradient id="SVGID_1_" gradientUnits="userSpaceOnUse" x1="256" x2="256" y1="512" y2="0"><stop offset="0" stop-color="#59351f"/><stop offset="1" stop-color="#AF8C68"/></linearGradient><g><g><g><path d="m316 182c-8.284 0-15 6.716-15 15s6.716 15 15 15 15-6.716 15-15-6.716-15-15-15zm181-60h-61c-19.05 0-36.452 7.151-49.695 18.894-10.625-28.522-38.127-48.894-70.305-48.894h-15v-77c0-8.284-6.716-15-15-15h-60c-8.284 0-15 6.716-15 15v77h-15c-32.178 0-59.68 20.372-70.305 48.894-13.243-11.743-30.645-18.894-49.695-18.894h-61c-8.284 0-15 6.716-15 15 0 41.355 33.645 75 75 75h46v45c0 47.101 7.919 74.817 15.577 101.621 7.417 25.96 14.423 50.48 14.423 93.379 0 33.084 26.916 60 60 60h90c33.084 0 60-26.916 60-60 0-42.899 7.006-67.419 14.423-93.379 7.658-26.804 15.577-54.52 15.577-101.621v-45h46c41.355 0 75-33.645 75-75 0-8.284-6.716-15-15-15zm-422 60c-19.557 0-36.239-12.539-42.43-30h43.43c19.557 0 36.239 12.539 42.43 30zm166-152h30v92h-30zm60 452h-90c-16.542 0-30-13.458-30-30s13.458-30 30-30h90c16.542 0 30 13.458 30 30s-13.458 30-30 30zm60-240h-38.891c-8.284 0-15 6.716-15 15s6.716 15 15 15h38.585c-.468 11.171-1.453 21.011-2.796 30h-41.898c-8.284 0-15 6.716-15 15s6.716 15 15 15h35.666c-1.616 6.219-3.34 12.26-5.089 18.379-4.493 15.726-9.073 31.771-12.094 51.856-9.57-6.459-21.094-10.235-33.483-10.235h-30v-45c0-8.284-6.716-15-15-15s-15 6.716-15 15v45h-30c-12.389 0-23.913 3.776-33.483 10.235-3.021-20.084-7.601-36.13-12.094-51.856-1.748-6.119-3.472-12.16-5.089-18.379h35.666c8.284 0 15-6.716 15-15s-6.716-15-15-15h-41.899c-1.343-8.989-2.328-18.829-2.796-30h44.695c8.284 0 15-6.716 15-15s-6.716-15-15-15h-45v-75c0-24.813 20.187-45 45-45h15v15c0 8.284 6.716 15 15 15h60c8.284 0 15-6.716 15-15v-15h15c24.813 0 45 20.187 45 45zm76-60h-43.43c6.19-17.461 22.873-30 42.43-30h43.43c-6.191 17.461-22.873 30-42.43 30zm-241 0c-8.284 0-15 6.716-15 15s6.716 15 15 15 15-6.716 15-15-6.716-15-15-15z" fill="url(#SVGID_1_)"/></g></g></g></svg>